<svg xmlns="http://www.w3.org/2000/svg" viewBox="0 0 1200 675" font-family="'PingFang SC','Microsoft YaHei',sans-serif">
<defs>
<linearGradient id="bg" x1="0" y1="0" x2="1" y2="1"><stop offset="0" stop-color="#06121F"/><stop offset="1" stop-color="#0b3a52"/></linearGradient>
<linearGradient id="tx" x1="0" y1="0" x2="1" y2="0"><stop offset="0" stop-color="#ffffff"/><stop offset="1" stop-color="#22c55e"/></linearGradient>
<radialGradient id="gl1" cx="50%" cy="50%" r="50%"><stop offset="0" stop-color="#0ea5e9" stop-opacity="0.75"/><stop offset="1" stop-color="#0ea5e9" stop-opacity="0"/></radialGradient>
<radialGradient id="gl2" cx="50%" cy="50%" r="50%"><stop offset="0" stop-color="#22c55e" stop-opacity="0.6"/><stop offset="1" stop-color="#22c55e" stop-opacity="0"/></radialGradient>
<pattern id="grid" width="48" height="48" patternUnits="userSpaceOnUse"><path d="M48 0H0V48" fill="none" stroke="#22c55e" stroke-width="1" opacity="0.08"/></pattern>
</defs>
<rect width="1200" height="675" fill="url(#bg)"/>
<rect width="1200" height="675" fill="url(#grid)"/>
<circle cx="140" cy="560" r="320" fill="url(#gl1)"/>
<circle cx="1080" cy="120" r="300" fill="url(#gl2)"/>
<rect x="880" y="120" width="240" height="320" rx="18" fill="none" stroke="#22c55e" stroke-width="2" opacity="0.4"/><rect x="912" y="160" width="180" height="12" rx="6" fill="#0ea5e9" opacity="0.5"/><rect x="912" y="204" width="150" height="12" rx="6" fill="#0ea5e9" opacity="0.46"/><rect x="912" y="248" width="180" height="12" rx="6" fill="#0ea5e9" opacity="0.42"/><rect x="912" y="292" width="150" height="12" rx="6" fill="#0ea5e9" opacity="0.38"/><rect x="912" y="336" width="180" height="12" rx="6" fill="#0ea5e9" opacity="0.33999999999999997"/><rect x="912" y="380" width="150" height="12" rx="6" fill="#0ea5e9" opacity="0.3"/><line x1="880" y1="300" x2="1120" y2="300" stroke="#22c55e" stroke-width="3" opacity="0.9"/>
<rect x="80" y="96" width="176" height="52" rx="26" fill="#22c55e" fill-opacity="0.16" stroke="#22c55e" stroke-opacity="0.5"/>
<circle cx="112" cy="122" r="6" fill="#22c55e"/>
<text x="132" y="131" fill="#dbe4ff" font-size="26" font-weight="600">行业观察</text>
<text x="80" y="380" fill="url(#tx)" font-size="96" font-weight="800" letter-spacing="1">餐饮门店记账</text>
<text x="80" y="450" fill="#9fb0d6" font-size="30" font-weight="500">账大师 · AI 财税观察</text>
<g opacity="0.9"><text x="80" y="600" fill="#6c7aa6" font-size="24" letter-spacing="3">ZHANGDASHI · 360 元 AI 记账</text></g>
</svg>