<?xml version="1.0" encoding="UTF-8"?>
<svg xmlns="http://www.w3.org/2000/svg" width="3970" height="1500" viewBox="0 0 3970 1500" role="img" aria-labelledby="title-zds-logo-h-jp-vector">
  <title id="title-zds-logo-h-jp-vector">账大师 日文版 360円AI記帳 Logo</title>
  <defs>
    <linearGradient id="zds-logo-h-jp-vector-gradient" x1="24" y1="24" x2="1191" y2="1475" gradientUnits="userSpaceOnUse">
      <stop offset="0" stop-color="#075BFF"/>
      <stop offset="0.55" stop-color="#008BFF"/>
      <stop offset="1" stop-color="#12D1DF"/>
    </linearGradient>
  </defs>
  <g transform="translate(-87 -58)">
    <path fill-rule="evenodd" d="M 375.500 83.190 C 372.803 84.713, 367.672 89, 368.546 89 C 368.930 89, 368.724 89.628, 368.087 90.395 C 367.451 91.162, 366.999 92.174, 367.083 92.645 C 367.168 93.115, 367.184 165.838, 367.118 254.250 L 367 415 299 415 C 261.600 415, 231 414.887, 231 414.750 C 231 414.613, 230.290 410.900, 229.423 406.500 C 228.555 402.100, 227.864 396.604, 227.886 394.286 C 227.908 391.968, 227.485 389.800, 226.946 389.467 C 226.408 389.134, 226.238 388.424, 226.568 387.889 C 227.603 386.215, 223.187 373.629, 220.592 370.857 C 219.232 369.404, 218.429 367.904, 218.809 367.524 C 219.189 367.144, 219.050 366.964, 218.500 367.123 C 217.950 367.283, 215.134 366.608, 212.242 365.624 C 205.930 363.475, 199.741 363.282, 173.500 364.414 C 160.010 364.996, 152.608 365.727, 150.760 366.659 C 149.253 367.419, 147.057 369.927, 145.881 372.233 C 143.764 376.383, 143.744 376.996, 143.917 433.462 C 144.077 486.251, 144.225 490.761, 145.893 494 C 146.884 495.925, 149.226 498.400, 151.098 499.500 C 154.434 501.461, 156.567 501.506, 260.399 501.785 L 366.298 502.070 365.601 563.285 C 365.153 602.653, 365.295 634.493, 366 652.500 C 366.602 667.900, 367.085 684.049, 367.072 688.386 C 367.060 692.723, 367.281 696.646, 367.563 697.102 C 367.845 697.559, 368.256 701.435, 368.476 705.716 C 369.011 716.136, 372.554 739.873, 375.654 753.808 C 377.037 760.028, 377.882 765.864, 377.532 766.778 C 377.181 767.691, 377.224 768.109, 377.628 767.705 C 378.031 767.302, 378.909 768.666, 379.579 770.736 C 383.902 784.097, 387.330 795.608, 387.178 796.250 C 387.080 796.662, 387.477 797, 388.059 797 C 388.641 797, 388.841 797.449, 388.502 797.997 C 388.163 798.545, 390.229 803.833, 393.093 809.747 C 395.957 815.661, 398.308 821.043, 398.317 821.706 C 398.326 822.369, 398.639 822.723, 399.013 822.492 C 399.386 822.261, 400.738 824.306, 402.017 827.036 C 403.296 829.766, 404.685 832, 405.104 832 C 405.923 832, 407.525 836.014, 407.198 837.250 C 407.089 837.663, 407.450 838, 408 838 C 408.550 838, 409 838.643, 409 839.429 C 409 840.214, 409.616 841.473, 410.368 842.225 C 411.121 842.978, 412.051 844.585, 412.435 845.797 C 412.820 847.008, 413.554 848, 414.067 848 C 414.580 848, 415 848.675, 415 849.500 C 415 850.325, 415.420 851, 415.933 851 C 416.912 851, 418.556 854.908, 418.173 856.324 C 418.051 856.778, 418.412 856.864, 418.975 856.515 C 419.912 855.936, 420.448 857.282, 420.094 859.324 C 420.015 859.778, 420.299 859.935, 420.725 859.675 C 421.606 859.135, 434.333 879.751, 434.333 881.717 C 434.333 882.423, 434.555 882.778, 434.827 882.506 C 435.741 881.592, 438.123 885.990, 437.398 887.252 C 437.003 887.938, 437.054 888.160, 437.511 887.745 C 437.969 887.330, 439.837 889.090, 441.662 891.657 C 444.719 895.957, 444.843 896.417, 443.240 897.487 C 438.982 900.328, 423.600 908.103, 413.921 912.306 C 408.103 914.833, 396.542 920.297, 388.231 924.450 C 379.919 928.602, 372.629 932, 372.030 932 C 371.431 932, 364.316 935.308, 356.220 939.350 C 348.124 943.393, 336.775 948.759, 331 951.274 C 325.225 953.789, 315.100 958.530, 308.500 961.810 C 301.900 965.089, 292.675 969.355, 288 971.290 C 275.796 976.340, 235.958 996.413, 233 999.002 C 229.552 1002.021, 225.411 1004.062, 224.466 1003.210 C 224.034 1002.820, 224.003 1003.063, 224.399 1003.750 C 225.056 1004.892, 223.873 1005.475, 221.676 1005.094 C 221.222 1005.015, 221.076 1005.314, 221.350 1005.758 C 221.625 1006.202, 220.196 1007.656, 218.175 1008.990 C 216.154 1010.323, 211.637 1013.619, 208.138 1016.312 C 204.639 1019.006, 201.147 1021.302, 200.378 1021.415 C 199.609 1021.528, 198.422 1022.246, 197.740 1023.012 C 196.703 1024.176, 196.827 1024.173, 198.500 1022.997 C 199.600 1022.224, 196.034 1025.845, 190.575 1031.045 C 185.116 1036.245, 180.301 1040.500, 179.875 1040.500 C 179.449 1040.500, 178.538 1041.063, 177.850 1041.750 C 177.162 1042.438, 176.936 1043, 177.347 1043 C 178.155 1043, 167.113 1056.223, 163.569 1059.500 C 162.379 1060.600, 162.081 1061.050, 162.906 1060.500 C 163.867 1059.860, 163.703 1060.453, 162.453 1062.147 C 161.379 1063.603, 160.151 1064.582, 159.725 1064.323 C 159.299 1064.063, 159.065 1064.222, 159.205 1064.676 C 159.543 1065.772, 155.784 1072, 154.784 1072 C 154.353 1072, 154 1072.675, 154 1073.500 C 154 1074.325, 153.550 1075, 153 1075 C 152.450 1075, 152 1075.675, 152 1076.500 C 152 1077.325, 151.523 1078, 150.941 1078 C 150.359 1078, 150.162 1078.453, 150.504 1079.007 C 150.847 1079.561, 150.498 1080.255, 149.730 1080.550 C 148.962 1080.845, 148.322 1081.629, 148.308 1082.293 C 148.270 1084.049, 140.925 1096, 139.883 1096 C 139.397 1096, 139.053 1096.338, 139.118 1096.750 C 139.432 1098.735, 138.901 1100.057, 138.011 1099.507 C 137.460 1099.166, 137.268 1099.536, 137.578 1100.342 C 137.883 1101.137, 136.526 1104.977, 134.563 1108.876 C 132.599 1112.774, 130.803 1116.985, 130.571 1118.232 C 130.339 1119.479, 130.059 1120.612, 129.949 1120.750 C 129.840 1120.888, 129.687 1121.338, 129.610 1121.750 C 129.533 1122.162, 129.112 1123.063, 128.676 1123.750 C 128.239 1124.438, 128.145 1125, 128.467 1125 C 128.788 1125, 128.419 1126.238, 127.647 1127.750 C 125.621 1131.718, 119.435 1153.823, 117.084 1165.500 C 111.314 1194.150, 111.500 1188.865, 111.500 1324 C 111.500 1462.789, 111.250 1457.384, 117.968 1463.968 C 124.559 1470.429, 130.126 1471.410, 160.500 1471.458 C 190.032 1471.506, 193.869 1470.811, 197.535 1464.750 C 199.449 1461.585, 199.517 1458.437, 200.146 1344 C 200.789 1227.194, 201.372 1206.596, 204.555 1188.347 C 205.368 1183.681, 205.775 1179.445, 205.458 1178.932 C 205.141 1178.419, 205.411 1178, 206.058 1178 C 206.772 1178, 207.046 1177.020, 206.755 1175.500 C 206.492 1174.125, 206.665 1173, 207.139 1173 C 207.612 1173, 208 1171.673, 208 1170.052 C 208 1162.781, 218.295 1137.669, 227.494 1122.500 C 230.638 1117.316, 234.881 1111.716, 232.492 1115.905 C 231.951 1116.853, 232.071 1117.074, 232.862 1116.585 C 233.506 1116.187, 233.789 1115.468, 233.491 1114.986 C 232.948 1114.108, 242.128 1102.971, 247.757 1097.679 C 249.407 1096.128, 251.599 1094.718, 252.628 1094.547 C 253.658 1094.375, 254.391 1093.741, 254.257 1093.138 C 254.123 1092.535, 257.948 1089.400, 262.757 1086.170 C 273.366 1079.045, 277.494 1076.852, 278.534 1077.790 C 278.966 1078.180, 279.017 1077.970, 278.646 1077.322 C 278.256 1076.641, 278.789 1075.884, 279.910 1075.529 C 280.976 1075.190, 283.539 1073.766, 285.605 1072.364 C 287.670 1070.963, 290.135 1069.667, 291.082 1069.484 C 293.256 1069.066, 299.026 1066.160, 301 1064.490 C 303.473 1062.397, 408.922 1010, 410.661 1010 C 411.227 1010, 420.198 1005.690, 430.596 1000.423 C 440.993 995.156, 450.400 990.663, 451.500 990.439 C 452.600 990.215, 460.885 986.286, 469.912 981.707 L 486.323 973.382 517.912 1005.327 C 535.285 1022.897, 564.700 1052.534, 583.278 1071.187 C 604.270 1092.263, 616.795 1105.555, 616.368 1106.300 C 615.989 1106.960, 616.030 1107.184, 616.457 1106.799 C 617.665 1105.710, 692.227 1180.808, 691.388 1182.268 C 690.998 1182.945, 691.036 1183.178, 691.473 1182.783 C 691.909 1182.389, 698.179 1188.014, 705.406 1195.283 L 718.545 1208.500 664.522 1262.787 C 634.810 1292.644, 586.875 1340.794, 558 1369.787 L 505.500 1422.500 505.177 1358 C 504.769 1276.720, 504.016 1257.720, 500.876 1249.500 C 499.615 1246.200, 498.688 1243.129, 498.817 1242.676 C 498.945 1242.222, 498.701 1242.052, 498.275 1242.298 C 497.849 1242.543, 496.600 1241.833, 495.500 1240.718 C 494.400 1239.604, 494.175 1239.059, 495 1239.507 C 495.826 1239.955, 496.150 1239.936, 495.721 1239.465 C 495.293 1238.994, 494.393 1238.528, 493.721 1238.429 C 493.049 1238.331, 490.250 1237.442, 487.500 1236.455 C 483.415 1234.989, 478.306 1234.580, 459.587 1234.221 C 436.038 1233.769, 431.416 1234.263, 426 1237.810 C 424.625 1238.711, 423.163 1239.460, 422.750 1239.474 C 422.337 1239.488, 421.980 1239.829, 421.957 1240.232 C 421.933 1240.634, 421.145 1242.659, 420.207 1244.732 C 418.688 1248.084, 418.445 1254.371, 418 1301.655 C 417.725 1330.890, 417.837 1354.601, 418.250 1354.346 C 418.662 1354.091, 419 1366.760, 419 1382.500 C 419 1398.240, 418.663 1410.911, 418.250 1410.657 C 417.593 1410.253, 417.591 1514.228, 418.248 1521.167 C 418.386 1522.633, 418.748 1523.758, 419.052 1523.667 C 419.355 1523.575, 421.032 1525.122, 422.778 1527.105 C 429.396 1534.621, 416.671 1534.117, 589.128 1533.684 C 674.032 1533.470, 744.874 1532.966, 746.554 1532.563 L 749.609 1531.830 749.554 1495.665 C 749.503 1461.277, 749.401 1459.328, 747.483 1456 C 746.197 1453.768, 743.665 1451.604, 740.495 1450.029 L 735.523 1447.558 674.511 1447.848 L 613.500 1448.139 620.926 1440.619 C 625.010 1436.483, 628.657 1433.288, 629.030 1433.519 C 629.404 1433.750, 630.753 1432.827, 632.029 1431.469 C 633.305 1430.111, 633.943 1429, 633.448 1429 C 632.952 1429, 636.103 1425.423, 640.450 1421.050 C 644.797 1416.678, 648.658 1413.289, 649.031 1413.519 C 649.404 1413.750, 650.753 1412.827, 652.029 1411.469 C 653.305 1410.111, 653.944 1409, 653.449 1409 C 652.955 1409, 655.880 1405.647, 659.951 1401.550 C 664.021 1397.452, 667.654 1394.286, 668.023 1394.514 C 668.392 1394.742, 669.972 1393.595, 671.534 1391.964 C 673.096 1390.334, 673.964 1389, 673.462 1389 C 672.960 1389, 675.880 1385.647, 679.951 1381.550 C 684.021 1377.452, 687.657 1374.288, 688.030 1374.519 C 688.404 1374.750, 689.753 1373.827, 691.029 1372.469 C 692.305 1371.111, 692.943 1370, 692.448 1370 C 691.952 1370, 695.103 1366.423, 699.450 1362.050 C 703.797 1357.678, 707.658 1354.289, 708.031 1354.519 C 708.404 1354.750, 709.753 1353.827, 711.029 1352.469 C 712.305 1351.111, 712.944 1350, 712.449 1350 C 711.955 1350, 714.880 1346.647, 718.951 1342.550 C 723.021 1338.452, 726.654 1335.286, 727.023 1335.514 C 727.392 1335.742, 728.972 1334.595, 730.534 1332.964 C 732.096 1331.334, 732.964 1330, 732.462 1330 C 731.960 1330, 734.880 1326.647, 738.951 1322.550 C 743.021 1318.452, 746.657 1315.288, 747.030 1315.519 C 747.404 1315.750, 748.787 1314.715, 750.105 1313.219 L 752.500 1310.500 749.500 1312.995 C 747.850 1314.368, 751.196 1310.993, 756.935 1305.495 C 762.675 1299.998, 767.677 1295.593, 768.053 1295.706 C 768.428 1295.819, 769.773 1294.806, 771.042 1293.456 C 772.310 1292.105, 772.943 1291, 772.448 1291 C 771.952 1291, 775.103 1287.423, 779.450 1283.050 C 783.797 1278.678, 787.658 1275.289, 788.031 1275.519 C 788.404 1275.750, 789.753 1274.827, 791.029 1273.469 C 792.305 1272.111, 792.944 1271, 792.449 1271 C 791.955 1271, 794.880 1267.647, 798.951 1263.550 C 803.021 1259.452, 806.654 1256.286, 807.023 1256.514 C 807.392 1256.742, 808.972 1255.595, 810.534 1253.964 C 812.096 1252.334, 812.964 1251, 812.462 1251 C 811.960 1251, 814.880 1247.647, 818.951 1243.550 C 823.021 1239.452, 826.654 1236.286, 827.023 1236.514 C 827.392 1236.742, 828.972 1235.595, 830.534 1233.964 C 832.096 1232.334, 832.964 1231, 832.462 1231 C 831.960 1231, 834.880 1227.647, 838.951 1223.550 C 843.021 1219.452, 846.654 1216.286, 847.023 1216.514 C 847.392 1216.742, 849 1215.482, 850.597 1213.714 L 853.500 1210.500 850.460 1213 C 848.788 1214.375, 851.713 1211.387, 856.960 1206.361 C 862.207 1201.335, 866.769 1197.381, 867.097 1197.575 C 867.425 1197.770, 868.972 1196.595, 870.534 1194.964 C 872.096 1193.334, 872.964 1192, 872.462 1192 C 871.960 1192, 874.880 1188.647, 878.951 1184.550 C 883.021 1180.452, 886.657 1177.288, 887.030 1177.519 C 887.404 1177.750, 888.753 1176.827, 890.029 1175.469 C 891.305 1174.111, 891.943 1173, 891.448 1173 C 890.952 1173, 894.103 1169.423, 898.450 1165.050 C 902.797 1160.678, 906.658 1157.289, 907.031 1157.519 C 907.404 1157.750, 908.753 1156.827, 910.029 1155.469 C 911.305 1154.111, 911.944 1153, 911.449 1153 C 910.955 1153, 913.880 1149.647, 917.951 1145.550 C 922.021 1141.452, 925.654 1138.286, 926.023 1138.514 C 926.874 1139.040, 932.206 1133.540, 931.515 1132.848 C 930.939 1132.272, 945.673 1118.759, 946.384 1119.211 C 947.118 1119.678, 951.979 1114.775, 951.519 1114.031 C 951.289 1113.658, 954.678 1109.797, 959.050 1105.450 C 963.423 1101.103, 967 1097.952, 967 1098.448 C 967 1098.943, 968.111 1098.305, 969.469 1097.029 C 970.827 1095.753, 971.750 1094.404, 971.519 1094.031 C 971.289 1093.658, 974.678 1089.797, 979.050 1085.450 C 983.423 1081.103, 987 1077.952, 987 1078.448 C 987 1078.943, 988.111 1078.305, 989.469 1077.029 C 990.827 1075.753, 991.736 1074.382, 991.489 1073.982 C 991.012 1073.210, 1005.115 1060.257, 1005.790 1060.848 C 1006.463 1061.437, 1011.958 1055.741, 1011.473 1054.956 C 1009.917 1052.439, 1028.444 1040.979, 1034 1041.020 C 1035.375 1041.031, 1041.220 1043.055, 1046.989 1045.520 C 1052.758 1047.984, 1057.998 1050, 1058.634 1050 C 1060 1050, 1076.965 1058.283, 1089 1064.825 C 1093.675 1067.367, 1097.998 1069.522, 1098.608 1069.614 C 1100.637 1069.921, 1107.944 1075.723, 1107.216 1076.450 C 1106.822 1076.844, 1106.950 1077.076, 1107.500 1076.965 C 1109.641 1076.533, 1111.089 1077.047, 1110.485 1078.025 C 1110.136 1078.588, 1110.222 1078.985, 1110.676 1078.906 C 1112.806 1078.536, 1114.052 1079.106, 1113.405 1080.155 C 1112.994 1080.819, 1113.127 1081.039, 1113.719 1080.674 C 1114.950 1079.913, 1132.274 1092.748, 1131.565 1093.895 C 1131.293 1094.335, 1132.405 1095.972, 1134.036 1097.534 C 1135.666 1099.096, 1137 1099.971, 1137 1099.479 C 1137 1098.986, 1139.046 1100.590, 1141.546 1103.042 C 1146.670 1108.067, 1156.254 1120.038, 1153.922 1118.500 C 1153.088 1117.950, 1153.362 1118.400, 1154.530 1119.500 C 1157.785 1122.564, 1160.226 1126.460, 1166.960 1139.334 C 1170.364 1145.843, 1172.896 1151.829, 1172.586 1152.636 C 1172.270 1153.460, 1172.457 1153.836, 1173.011 1153.493 C 1173.555 1153.157, 1174 1153.063, 1174 1153.285 C 1174 1153.506, 1175.582 1158.287, 1177.517 1163.909 C 1179.451 1169.530, 1181.106 1175.338, 1181.195 1176.815 C 1181.284 1178.292, 1181.593 1179.942, 1181.881 1180.482 C 1182.169 1181.023, 1182.478 1182.148, 1182.567 1182.982 C 1182.655 1183.817, 1183.665 1190.575, 1184.811 1198 C 1185.957 1205.425, 1187.201 1215.831, 1187.575 1221.124 C 1187.949 1226.417, 1188.329 1279.517, 1188.419 1339.124 C 1188.565 1435.848, 1188.757 1448.142, 1190.212 1453.474 C 1191.108 1456.759, 1191.583 1459.866, 1191.266 1460.378 C 1190.933 1460.918, 1191.248 1460.965, 1192.015 1460.490 C 1192.985 1459.891, 1193.164 1460.132, 1192.681 1461.388 C 1192.290 1462.407, 1192.424 1462.856, 1193.011 1462.493 C 1193.555 1462.157, 1194 1462.320, 1194 1462.855 C 1194 1464.824, 1204.007 1469.915, 1210.170 1471.082 C 1219.168 1472.785, 1259.187 1472.808, 1264.976 1471.112 C 1270.316 1469.548, 1275.495 1464.439, 1277.041 1459.208 C 1277.819 1456.577, 1278.028 1419.918, 1277.761 1333 C 1277.353 1199.575, 1277.393 1200.603, 1271.402 1171.236 C 1270.025 1164.490, 1269.217 1158.458, 1269.604 1157.831 C 1270.066 1157.084, 1269.861 1156.968, 1269.010 1157.494 C 1268.028 1158.101, 1267.836 1157.640, 1268.223 1155.614 C 1268.505 1154.138, 1268.490 1153.176, 1268.190 1153.477 C 1267.890 1153.777, 1265.321 1146.418, 1262.481 1137.124 C 1259.642 1127.829, 1255.437 1116.321, 1253.138 1111.551 C 1250.839 1106.780, 1249.262 1102.385, 1249.634 1101.784 C 1250.069 1101.079, 1249.839 1100.981, 1248.985 1101.510 C 1248.015 1102.109, 1247.836 1101.868, 1248.319 1100.612 C 1248.710 1099.593, 1248.576 1099.144, 1247.989 1099.507 C 1247.445 1099.843, 1247 1099.711, 1247 1099.214 C 1247 1098.717, 1245.235 1095.580, 1243.079 1092.243 C 1240.922 1088.906, 1239.422 1085.911, 1239.745 1085.588 C 1240.069 1085.265, 1239.782 1085, 1239.108 1085 C 1238.434 1085, 1238.160 1084.550, 1238.500 1084 C 1238.840 1083.450, 1238.641 1083, 1238.059 1083 C 1237.477 1083, 1237 1082.325, 1237 1081.500 C 1237 1080.675, 1236.660 1080, 1236.244 1080 C 1235.828 1080, 1234.934 1078.763, 1234.257 1077.250 C 1233.580 1075.737, 1231.697 1072.952, 1230.071 1071.061 C 1228.446 1069.169, 1227.385 1067.187, 1227.713 1066.656 C 1228.041 1066.125, 1227.789 1066.012, 1227.155 1066.405 C 1226.520 1066.797, 1225.944 1066.641, 1225.875 1066.059 C 1225.806 1065.477, 1225.694 1064.588, 1225.625 1064.083 C 1225.556 1063.579, 1225.090 1062.792, 1224.590 1062.333 C 1224.053 1061.842, 1223.992 1062.116, 1224.441 1063 C 1224.860 1063.825, 1224.012 1063.053, 1222.557 1061.285 C 1221.101 1059.517, 1219.949 1057.942, 1219.997 1057.785 C 1220.044 1057.628, 1217.833 1055.065, 1215.082 1052.089 C 1212.332 1049.113, 1210.272 1046.369, 1210.505 1045.992 C 1210.966 1045.245, 1205.434 1039.584, 1204.799 1040.152 C 1203.998 1040.869, 1189.131 1026.597, 1189.707 1025.665 C 1190.038 1025.129, 1189.856 1024.971, 1189.302 1025.313 C 1188.748 1025.656, 1187.441 1025.242, 1186.397 1024.394 C 1185.354 1023.546, 1185.175 1023.182, 1186 1023.586 C 1186.882 1024.018, 1187.157 1023.945, 1186.667 1023.410 C 1186.208 1022.910, 1185.428 1022.500, 1184.934 1022.500 C 1183.895 1022.500, 1172.666 1013.952, 1172.167 1012.781 C 1171.983 1012.352, 1171.435 1012, 1170.948 1012 C 1169.079 1012, 1155.989 1002.827, 1156.554 1001.913 C 1156.881 1001.384, 1156.778 1001.051, 1156.324 1001.173 C 1154.496 1001.668, 1151.001 999.804, 1151.646 998.678 C 1152.017 998.030, 1151.987 997.799, 1151.579 998.164 C 1151.172 998.530, 1143.112 994.801, 1133.669 989.877 C 1124.226 984.954, 1111.775 978.638, 1106 975.841 C 1095.202 970.611, 1089.032 967.523, 993.287 919.428 C 962.371 903.898, 936.496 890.924, 935.787 890.596 C 934.769 890.124, 934.761 889.878, 935.750 889.417 C 936.438 889.096, 937 888.196, 937 887.417 C 937 886.638, 937.450 886, 938 886 C 938.550 886, 939 885.325, 939 884.500 C 939 883.675, 939.477 883, 940.059 883 C 940.641 883, 940.857 882.578, 940.538 882.061 C 940.219 881.545, 940.755 880.659, 941.729 880.092 C 942.703 879.525, 943.140 879.047, 942.699 879.030 C 942.259 879.014, 943.159 877.312, 944.699 875.250 C 948.657 869.951, 949.665 868.998, 950.464 869.798 C 950.851 870.184, 951.058 870.050, 950.925 869.500 C 950.524 867.846, 952.142 864.970, 953.130 865.580 C 953.636 865.893, 953.985 865.778, 953.906 865.324 C 953.577 863.431, 954.057 861.917, 954.833 862.397 C 955.292 862.680, 955.684 862.369, 955.705 861.706 C 955.759 860.007, 965.831 844.880, 968.384 842.663 C 969.548 841.653, 969.873 841.157, 969.106 841.561 C 968.121 842.080, 968.249 841.388, 969.540 839.202 C 970.545 837.501, 971.847 836.381, 972.433 836.715 C 973.020 837.048, 973.180 836.966, 972.790 836.534 C 972.097 835.766, 974.560 829.995, 976.005 829 C 976.754 828.484, 981.505 819.500, 981.028 819.500 C 980.881 819.500, 982.996 814.894, 985.728 809.264 C 988.460 803.634, 991.012 799.346, 991.400 799.734 C 991.788 800.122, 991.841 799.750, 991.518 798.907 C 991.194 798.064, 992.254 794.253, 993.873 790.437 C 996.833 783.460, 1000.115 773.217, 1000.582 769.500 C 1000.720 768.400, 1000.905 767.500, 1000.993 767.500 C 1001.242 767.500, 1001.865 764.838, 1002.515 761 C 1002.841 759.075, 1003.517 756.150, 1004.017 754.500 C 1005.254 750.418, 1009 727.926, 1009 724.580 C 1009 723.096, 1009.337 722.091, 1009.750 722.345 C 1010.805 722.997, 1010.813 722.161, 1010.841 606.250 L 1010.867 502 1113.884 502 C 1189.970 502, 1218.287 501.689, 1222.201 500.808 C 1225.115 500.153, 1227.950 499.741, 1228.500 499.892 C 1229.050 500.043, 1229.199 499.866, 1228.831 499.498 C 1228.463 499.130, 1229.138 497.713, 1230.331 496.349 C 1231.524 494.986, 1232.793 492.887, 1233.150 491.685 C 1233.508 490.483, 1233.841 464.750, 1233.891 434.500 L 1233.980 379.500 1231.574 374.332 C 1230.251 371.490, 1229.356 368.978, 1229.584 368.749 C 1230.263 368.070, 1228.622 367.987, 1202.289 367.359 C 1179.234 366.810, 1164.869 367.578, 1159.472 369.649 C 1157.288 370.487, 1156.007 375.652, 1153.931 392 C 1152.849 400.525, 1151.486 408.963, 1150.904 410.750 L 1149.845 414 1080.922 414 L 1012 414 1011.785 353.750 C 1011.521 279.984, 1011.587 286.073, 1011.057 286.607 C 1010.813 286.852, 1010.018 284.679, 1009.291 281.776 C 1007.381 274.161, 999.782 258.871, 995.614 254.257 C 993.646 252.079, 992.264 250.070, 992.542 249.791 C 992.821 249.513, 992.362 248.716, 991.524 248.020 C 990.686 247.324, 990 247.065, 990 247.445 C 990 247.824, 988.087 246.572, 985.750 244.662 C 980.494 240.369, 972.809 236.154, 963 232.187 C 955.904 229.317, 924.375 219.622, 919 218.657 C 916.227 218.160, 905.428 214.971, 888 209.504 C 881.675 207.519, 871.550 204.411, 865.500 202.597 C 856.280 199.832, 854.905 199.170, 857 198.507 C 858.375 198.072, 871.957 191.524, 887.183 183.957 C 902.408 176.390, 915.193 170.491, 915.593 170.849 C 915.993 171.207, 916.026 170.985, 915.666 170.355 C 914.999 169.188, 917.685 167.485, 919.500 167.925 C 920.050 168.058, 920.168 167.834, 919.761 167.428 C 919.355 167.022, 921.063 164.300, 923.558 161.381 C 929.602 154.306, 929.987 151.498, 929.994 114.423 L 930 84.346 923.635 83.173 C 914.658 81.519, 378.429 81.536, 375.500 83.190 M 454 315.398 L 454 462 689.250 462 L 924.500 462 924.280 432.364 C 924.160 416.064, 923.822 402.489, 923.530 402.197 C 922.697 401.364, 922.911 372, 923.750 372 C 924.163 372, 924.500 360.750, 924.500 347 C 924.500 333.250, 924.130 322, 923.677 322 C 923.224 322, 923.026 321.212, 923.237 320.250 C 923.448 319.288, 922.334 316.587, 920.762 314.250 C 918.141 310.353, 916.960 309.510, 914.676 309.906 C 914.222 309.985, 914.107 309.636, 914.419 309.131 C 914.731 308.625, 913.077 307.442, 910.744 306.502 C 906.299 304.711, 883.428 298.164, 878.835 297.369 C 875.894 296.859, 856.097 291.180, 837.500 285.511 C 816.834 279.211, 812.964 278.118, 809.219 277.522 C 807.217 277.204, 800.161 275.411, 793.539 273.538 C 767.590 266.197, 740.372 259.611, 729.796 258.113 C 720.423 256.786, 700.247 249.810, 687.450 243.472 C 681.373 240.463, 676.093 238, 675.718 238 C 675.342 238, 671.315 235.474, 666.767 232.386 C 662.220 229.299, 657.951 226.687, 657.279 226.582 C 656.607 226.477, 655.707 226.006, 655.279 225.535 C 654.851 225.065, 655.175 225.022, 656 225.441 C 656.825 225.860, 655.925 224.937, 654 223.388 C 652.075 221.840, 647.462 217.671, 643.750 214.123 C 640.038 210.575, 637 208.026, 637 208.458 C 637 208.891, 636.314 208.676, 635.476 207.980 C 634.638 207.284, 634.157 206.509, 634.409 206.258 C 634.969 205.698, 623.644 191.209, 620.656 188.663 C 619.470 187.653, 619.109 187.146, 619.854 187.536 C 620.777 188.020, 620.660 187.411, 619.489 185.623 C 617.840 183.106, 616.126 181.777, 617.595 184.155 C 618.041 184.876, 617.869 185.037, 617.138 184.585 C 616.494 184.187, 616.208 183.473, 616.502 182.997 C 617.398 181.547, 610.024 175.160, 604.093 172.247 L 598.500 169.500 526.250 169.148 L 454 168.796 454 315.398 M 455.494 574.363 C 455.092 587.212, 454.938 599.549, 455.150 601.779 C 455.363 604.008, 455.262 605.662, 454.926 605.454 C 454.182 604.994, 453 641.047, 453 664.220 C 453 673.514, 453.337 680.908, 453.750 680.651 C 454.163 680.395, 454.354 684.240, 454.176 689.197 C 453.998 694.154, 454.232 697.975, 454.695 697.689 C 455.158 697.402, 455.374 698.880, 455.174 700.973 C 454.642 706.547, 458.542 730.774, 462.102 744.015 C 463.801 750.332, 465.366 756.400, 465.582 757.500 C 466.696 763.188, 473.104 777.054, 474.282 776.326 C 474.847 775.976, 475.009 776.176, 474.642 776.771 C 473.728 778.250, 476.048 783.088, 477.301 782.314 C 477.872 781.961, 478.001 782.190, 477.599 782.841 C 476.870 784.019, 486.461 802.507, 490.131 807 C 491.255 808.375, 491.837 808.825, 491.426 808 C 490.987 807.117, 491.054 806.843, 491.590 807.333 C 492.090 807.792, 492.556 808.579, 492.625 809.083 C 492.694 809.587, 492.806 810.350, 492.875 810.777 C 492.944 811.205, 494.238 812.948, 495.750 814.652 C 500.452 819.948, 502 821.991, 502 822.901 C 502 824.254, 530.991 853, 532.355 853 C 533.017 853, 535.120 854.502, 537.029 856.338 C 542.304 861.412, 549.126 866.040, 550.279 865.327 C 550.873 864.961, 551.007 865.180, 550.595 865.845 C 549.948 866.894, 551.194 867.464, 553.324 867.094 C 553.778 867.015, 553.907 867.342, 553.611 867.820 C 552.639 869.393, 591.552 890.153, 598 891.501 C 598.825 891.673, 604.900 893.644, 611.500 895.880 C 651.035 909.274, 694.551 912.517, 733.964 905.007 C 745.102 902.885, 767.097 896.745, 773.698 893.915 C 776.155 892.862, 778.784 892, 779.539 892 C 781.459 892, 804.674 880.743, 809.388 877.526 C 811.527 876.067, 815.599 873.634, 818.436 872.119 C 825.091 868.568, 834.095 861.451, 833.197 860.453 C 832.813 860.027, 832.993 859.960, 833.595 860.303 C 834.788 860.982, 853.480 846.147, 852.573 845.240 C 851.795 844.462, 854.054 841.915, 855.002 842.501 C 855.428 842.764, 858.639 839.933, 862.138 836.209 C 870.011 827.829, 877.956 818.313, 876.168 819.406 C 875.435 819.854, 877.102 817.844, 879.871 814.940 C 882.641 812.036, 884.677 809.286, 884.395 808.830 C 884.113 808.373, 884.359 808, 884.941 808 C 885.523 808, 886 807.541, 886 806.980 C 886 806.419, 887.200 804.059, 888.667 801.736 C 890.133 799.413, 891.333 796.947, 891.333 796.256 C 891.333 795.565, 891.555 795.222, 891.827 795.494 C 892.718 796.385, 895.133 792.025, 894.403 790.844 C 893.989 790.172, 894.128 789.961, 894.738 790.338 C 895.650 790.901, 903.821 776.903, 903.852 774.723 C 903.859 774.296, 906.228 767.996, 909.118 760.723 C 912.008 753.450, 914.391 745.839, 914.414 743.809 C 914.436 741.779, 914.725 740.555, 915.055 741.089 C 916.859 744.008, 922.706 712.696, 923.568 695.500 C 924.878 669.379, 925.480 639.997, 924.705 639.999 C 924.268 639.999, 923.967 633.362, 924.036 625.250 C 924.105 617.138, 923.886 609.802, 923.550 608.948 C 923.213 608.094, 923.064 594.706, 923.219 579.197 L 923.500 550.999 689.862 550.999 L 456.224 551 455.494 574.363 M 847 957.933 C 845.625 958.352, 840.675 960.565, 836 962.851 C 812.048 974.565, 763.463 988.594, 740.500 990.428 C 736.100 990.780, 728.450 991.539, 723.500 992.117 C 711.615 993.502, 670.379 993.464, 656.500 992.054 C 650.450 991.440, 641.915 990.657, 637.534 990.315 L 629.567 989.693 685.710 1045.597 C 716.589 1076.343, 751.915 1111.463, 764.212 1123.640 L 786.572 1145.780 840.536 1093.362 C 870.216 1064.532, 894.388 1040.506, 894.250 1039.972 C 894.113 1039.437, 894.413 1039.113, 894.919 1039.250 C 895.424 1039.388, 906.722 1028.954, 920.026 1016.065 C 942.002 994.775, 944.051 992.510, 942.417 991.315 C 941.427 990.592, 940.037 990, 939.327 990 C 938.617 990, 929.816 985.695, 919.768 980.433 C 909.721 975.171, 900.433 970.653, 899.129 970.392 C 897.826 970.131, 894.226 968.612, 891.129 967.016 C 884.853 963.782, 876.791 960.497, 870 958.407 C 865.238 956.941, 851.207 956.652, 847 957.933" fill="url(#zds-logo-h-jp-vector-gradient)"/>
    <path fill-rule="evenodd" d="M 1888.381 255.750 C 1889.667 267.318, 1890.972 295.944, 1890.986 312.885 L 1891 330.270 1865.075 329.803 C 1850.817 329.546, 1838.554 329.670, 1837.825 330.078 C 1836.736 330.688, 1836.510 352.241, 1836.558 451.195 C 1836.590 517.401, 1836.954 572.117, 1837.367 572.785 C 1837.907 573.658, 1842.719 574, 1854.477 574 C 1863.475 574, 1871.493 573.748, 1872.296 573.440 C 1873.567 572.952, 1873.687 559.831, 1873.229 471.940 L 1872.702 371 1881.970 371 L 1891.238 371 1890.869 516.250 C 1890.667 596.138, 1890.865 662.063, 1891.309 662.750 C 1891.912 663.681, 1897.192 664, 1912 664 C 1926.810 664, 1932.087 663.681, 1932.687 662.750 C 1933.129 662.063, 1933.330 631.688, 1933.132 595.250 C 1932.935 558.813, 1932.987 529, 1933.248 529 C 1934.437 529, 1938.205 543.805, 1939.472 553.461 C 1940.243 559.337, 1941.457 564.846, 1942.170 565.705 C 1943.243 566.997, 1945.099 567.168, 1952.982 566.699 C 1964.159 566.033, 1971.804 563.919, 1977.698 559.863 C 1987.296 553.260, 1990 542.939, 1990 512.912 L 1990 493 2004.500 493 L 2019 493 2019 550.481 L 2019 607.962 2016.750 608.486 C 2011.787 609.643, 1992.579 611.964, 1982.673 612.605 C 1976.890 612.978, 1971.592 613.634, 1970.900 614.062 C 1969.937 614.657, 1971.006 619.682, 1975.456 635.472 C 1981.393 656.543, 1983.951 662.266, 1987.675 662.805 C 1988.833 662.973, 1992.868 661.562, 1996.640 659.670 C 2000.981 657.493, 2008.090 655.227, 2016 653.501 C 2040.523 648.148, 2110.123 627.979, 2118.202 623.885 C 2122.703 621.604, 2123.983 617.876, 2124.002 607 C 2124.009 602.875, 2124.466 596.575, 2125.017 593 C 2126.911 580.709, 2126.281 580.873, 2133.873 590.694 C 2148.451 609.551, 2166.092 625.968, 2185.859 639.073 C 2197.384 646.714, 2215.165 656.104, 2221.881 658.096 C 2226.072 659.339, 2226.347 659.289, 2228.245 656.947 C 2229.336 655.601, 2232.263 650.450, 2234.748 645.500 C 2239.566 635.907, 2245.207 627.112, 2250.158 621.473 C 2252.333 618.996, 2252.813 617.883, 2251.848 617.556 C 2231.074 610.520, 2212.260 601.350, 2198.772 591.687 C 2189.931 585.353, 2171.994 570.221, 2172.007 569.107 C 2172.011 568.773, 2173.681 567.375, 2175.718 566 C 2182.259 561.587, 2196.191 549.944, 2207.500 539.443 C 2213.550 533.825, 2220.750 527.911, 2223.500 526.300 C 2229.967 522.512, 2230.416 520.071, 2225.499 515.434 C 2222.486 512.593, 2211.453 504.126, 2199.142 495.208 C 2196.893 493.578, 2197.834 493.500, 2219.642 493.500 L 2242.500 493.500 2242.500 473 L 2242.500 452.500 2152.750 452.901 L 2063 453.302 2063 439.988 L 2063 426.674 2132.475 427.360 L 2201.950 428.046 2202.511 425.773 C 2202.819 424.523, 2202.943 416.300, 2202.786 407.500 L 2202.500 391.500 2133 391.500 L 2063.500 391.500 2063.217 379.587 L 2062.934 367.673 2132.351 368.359 C 2195.532 368.983, 2201.824 368.900, 2202.384 367.441 C 2203.309 365.032, 2203.095 334.699, 2202.144 333.199 C 2201.476 332.146, 2188.154 331.955, 2132.409 332.199 L 2063.500 332.500 2063.217 320.586 L 2062.934 308.672 2141.002 309.309 L 2219.070 309.945 2220.035 307.407 C 2221.172 304.418, 2221.213 273.405, 2220.084 270.515 C 2219.318 268.553, 2218.130 268.529, 2119.154 268.515 C 2053.116 268.505, 2018.962 268.841, 2018.887 269.500 C 2018.825 270.050, 2018.870 311.563, 2018.988 361.750 L 2019.201 453 2003.993 453 L 1988.784 453 1989.142 391.964 C 1989.427 343.323, 1989.242 330.767, 1988.227 330.140 C 1987.527 329.708, 1974.759 329.560, 1959.853 329.811 L 1932.752 330.269 1933.228 302.384 C 1933.662 276.950, 1933.915 273.724, 1936.102 265.667 L 1938.500 256.834 1936.287 255.037 C 1935.070 254.048, 1931.695 252.958, 1928.787 252.613 C 1918.211 251.359, 1900.349 250.017, 1894.121 250.009 L 1887.742 250 1888.381 255.750 M 3375 259.386 C 3375 261.704, 3369.964 275.964, 3365.796 285.451 C 3354.684 310.739, 3328.536 350.467, 3304.553 378.500 C 3284.566 401.861, 3260.539 425.241, 3233.750 447.395 C 3227.838 452.284, 3223.011 456.558, 3223.025 456.892 C 3223.038 457.227, 3228.326 460.047, 3234.775 463.160 C 3241.224 466.272, 3250.712 471.613, 3255.860 475.027 C 3264.328 480.643, 3265.596 481.183, 3269.178 480.703 C 3281.586 479.039, 3330.546 430.275, 3369 381.281 L 3374.500 374.274 3413 373.624 C 3434.175 373.266, 3459.491 372.692, 3469.257 372.349 L 3487.015 371.723 3481.356 383.491 C 3468.765 409.676, 3453.891 434.758, 3438.868 455.140 L 3433.974 461.780 3418.237 451.276 C 3390.576 432.813, 3373.063 423.265, 3368.816 424.331 C 3367.353 424.699, 3359.964 431.856, 3350.674 441.907 C 3342.053 451.233, 3335 459.076, 3335 459.337 C 3335 459.598, 3340.287 462.829, 3346.750 466.517 C 3361.903 475.164, 3375.789 484.239, 3389.297 494.322 L 3400.094 502.382 3385.297 517.244 C 3359.534 543.120, 3336.527 562.304, 3309 580.863 C 3288.105 594.951, 3275.044 602.844, 3250.900 615.973 C 3240.972 621.372, 3233.239 626.030, 3233.716 626.324 C 3234.193 626.619, 3237.631 628.007, 3241.356 629.410 C 3251.328 633.163, 3261.196 638.598, 3271.892 646.229 C 3283.707 654.658, 3285.457 654.824, 3297.207 648.625 C 3317.758 637.783, 3341.932 622.066, 3365.837 604.004 C 3386.924 588.071, 3402.012 574.936, 3423.481 553.821 L 3441.461 536.137 3445.481 539.459 C 3451.272 544.244, 3471.399 564.109, 3480.225 573.750 C 3489.833 584.245, 3490.837 584.350, 3500.851 575.921 C 3509.473 568.663, 3525.839 550.490, 3526.645 547.279 C 3526.959 546.025, 3526.946 543.923, 3526.616 542.606 C 3525.492 538.127, 3499.720 512.757, 3479.551 496.275 L 3475.604 493.049 3479.391 487.775 C 3497.327 462.798, 3516.435 431.408, 3534.717 396.888 C 3544.445 378.519, 3547.295 374.020, 3553.588 367.100 C 3557.665 362.617, 3561 358.046, 3561 356.942 C 3561 355.839, 3560.382 353.488, 3559.627 351.718 C 3557.941 347.766, 3542.697 332.084, 3534.377 325.745 C 3527.969 320.861, 3519.550 316, 3517.502 316 C 3516.842 316, 3513.336 317.573, 3509.712 319.497 C 3498.187 325.613, 3495.675 325.928, 3449.163 327.096 C 3425.878 327.681, 3406.597 327.930, 3406.317 327.650 C 3406.036 327.370, 3407.141 325.196, 3408.770 322.820 C 3410.400 320.444, 3413.623 315.350, 3415.932 311.500 C 3418.241 307.650, 3423.251 301.538, 3427.065 297.918 C 3433.188 292.106, 3434 290.906, 3434 287.668 C 3434 282.614, 3431.757 280.691, 3418.618 274.480 C 3408.203 269.558, 3378.343 258, 3376.041 258 C 3375.469 258, 3375 258.624, 3375 259.386 M 3031.501 309.220 C 3024.736 313.140, 3021.009 313.326, 2940.564 313.735 C 2897.700 313.954, 2847.986 313.679, 2830.090 313.124 C 2812.194 312.569, 2797.376 312.291, 2797.160 312.506 C 2796.514 313.153, 2798.896 347.177, 2799.992 352.956 C 2801.762 362.292, 2803.018 365.939, 2804.784 366.876 C 2805.797 367.414, 2810.390 367.436, 2816 366.931 C 2825.879 366.042, 2994.991 363.657, 2995.730 364.397 C 2996.315 364.982, 2985.391 382.939, 2974.985 398.500 C 2933.014 461.260, 2877.787 516.579, 2818.500 555.246 C 2802.903 565.418, 2781.164 578.185, 2763.732 587.412 L 2750.965 594.170 2759.417 599.476 C 2770.989 606.741, 2778.267 612.525, 2786.374 620.899 C 2792.199 626.918, 2793.758 628, 2796.595 628 C 2801.153 628, 2808.267 624.699, 2823.571 615.482 C 2866.637 589.544, 2907.545 557.386, 2946.602 518.765 L 2960.705 504.821 2972.602 514.570 C 3005.616 541.620, 3041.665 575.968, 3065.938 603.500 C 3080.295 619.785, 3081.579 620.948, 3085.244 620.978 C 3088.574 621.005, 3099.880 611.360, 3111.568 598.521 C 3124.799 583.986, 3126.340 580.745, 3122.375 575.790 C 3118.881 571.422, 3082.349 536.366, 3067.884 523.499 C 3048.519 506.274, 3027.356 488.626, 3009.777 475.044 L 2995.243 463.814 3006.224 449.203 C 3018.755 432.528, 3039.073 402.340, 3050.042 384.098 C 3055.326 375.311, 3060.197 368.834, 3066.750 361.881 C 3073.107 355.136, 3076 351.318, 3076 349.673 C 3076 345.567, 3065.483 331.738, 3053.312 319.841 C 3041.979 308.762, 3036.714 306.198, 3031.501 309.220 M 2628.500 336.934 C 2619.180 341.466, 2618.026 341.501, 2478.500 341.483 C 2382.073 341.470, 2340.880 341.117, 2325.645 340.171 C 2314.175 339.459, 2304.556 339.110, 2304.271 339.396 C 2303.541 340.126, 2305.854 364.197, 2308.006 378.278 C 2309.910 390.730, 2311.556 394.600, 2315.358 395.554 C 2316.641 395.876, 2323.498 395.629, 2330.596 395.006 C 2344.476 393.787, 2460.866 392.175, 2542.839 392.067 L 2593.178 392 2590.478 395.250 C 2580.220 407.597, 2553.262 436.690, 2536 454.043 C 2517.152 472.989, 2490.375 498.044, 2489.054 497.968 C 2488.749 497.951, 2483.100 493.398, 2476.500 487.850 C 2469.900 482.302, 2454.707 470.392, 2442.737 461.382 C 2425.939 448.737, 2420.295 445, 2417.994 445 C 2414.808 445, 2409.607 449.243, 2389.571 468.190 L 2379.642 477.579 2387.071 482.951 C 2412.114 501.062, 2442.343 527.385, 2468.175 553.578 C 2488.507 574.193, 2499.891 586.891, 2516.969 608.002 C 2532.205 626.837, 2531.312 626.649, 2546 614.111 C 2557.610 604.201, 2569.219 592.569, 2570.521 589.543 C 2571.399 587.503, 2571.499 585.812, 2570.843 584.088 C 2569.346 580.151, 2555.026 562.875, 2535.024 540.876 L 2529.001 534.251 2546.751 517.883 C 2570.093 496.358, 2609.737 456.727, 2634.312 430.351 C 2648.441 415.186, 2656.914 407.006, 2664.258 401.440 C 2669.891 397.172, 2675.277 392.739, 2676.228 391.589 C 2678.535 388.799, 2678.450 382.803, 2676.037 378.072 C 2673.339 372.784, 2663.256 360.261, 2653.583 350.186 C 2639.322 335.331, 2635.715 333.425, 2628.500 336.934 M 1933 448.369 L 1933 525.738 1936.750 526.358 C 1942.380 527.289, 1947.897 527.126, 1950.066 525.965 C 1951.952 524.955, 1952 523.034, 1952 447.965 L 1952 371 1942.500 371 L 1933 371 1933 448.369 M 3675.401 440.754 C 3676.618 459.581, 3680.714 486.728, 3682.974 490.952 C 3683.571 492.067, 3685.419 493.682, 3687.080 494.542 C 3689.864 495.981, 3693.026 495.855, 3727.301 492.934 L 3764.500 489.764 3896.658 490.310 C 4006.450 490.763, 4029.128 490.627, 4030.658 489.510 C 4032.342 488.279, 4032.526 486.129, 4032.803 464.416 C 4033.116 439.806, 4032.596 435.651, 4029.088 434.733 C 4028.126 434.482, 4005.775 434.692, 3979.419 435.201 C 3953.064 435.709, 3884.250 435.933, 3826.500 435.697 C 3722.964 435.275, 3711.302 434.939, 3684.615 431.612 L 3674.730 430.380 3675.401 440.754 M 2063.667 493.667 C 2063.300 494.033, 2063 517.883, 2063 546.667 C 2063 587.867, 2063.266 599, 2064.250 598.999 C 2067.479 598.997, 2123.837 582.415, 2125.315 581.032 C 2125.764 580.613, 2123.519 576.271, 2120.327 571.385 C 2108.893 553.879, 2095.460 524.447, 2088.545 501.750 L 2085.879 493 2075.106 493 C 2069.181 493, 2064.033 493.300, 2063.667 493.667 M 2128.448 495.750 C 2129.662 500.771, 2138.483 520.449, 2143.920 530.263 L 2149.280 539.937 2151.890 538.078 C 2153.325 537.056, 2160.634 530.207, 2168.130 522.860 C 2180.306 510.926, 2185.662 504.660, 2191.305 495.750 L 2193.046 493 2160.415 493 L 2127.783 493 2128.448 495.750 M 3365.762 1011.360 L 3366.287 1027 3355.634 1027 L 3344.980 1027 3345.240 1073.750 L 3345.500 1120.500 3352.500 1120.500 L 3359.500 1120.500 3359.762 1081.750 L 3360.023 1043 3363.012 1043 L 3366 1043 3366 1099 L 3366 1155 3374.500 1155 L 3383 1155 3383.128 1130.250 C 3383.240 1108.595, 3383.400 1106.250, 3384.402 1111.500 L 3385.548 1117.500 3389.679 1117.803 C 3391.952 1117.969, 3395.399 1117.442, 3397.339 1116.632 C 3402.631 1114.421, 3404.301 1110.316, 3404.409 1099.258 L 3404.500 1090.015 3409.750 1090.008 L 3415 1090 3415 1111.441 C 3415 1123.234, 3414.619 1133.117, 3414.154 1133.405 C 3413.689 1133.692, 3409.639 1134.234, 3405.154 1134.608 C 3395.762 1135.391, 3395.993 1134.984, 3398.987 1145.454 C 3401.534 1154.362, 3402.756 1155.684, 3406.626 1153.724 C 3408.207 1152.923, 3411.975 1151.703, 3415 1151.011 C 3425.886 1148.523, 3451.547 1140.842, 3453.750 1139.413 C 3455.441 1138.316, 3456 1136.997, 3456 1134.102 C 3456 1131.983, 3456.274 1128.879, 3456.609 1127.204 L 3457.218 1124.158 3462.179 1130.120 C 3464.908 1133.398, 3469.696 1138.113, 3472.820 1140.597 C 3479.423 1145.847, 3491.724 1152.968, 3494.224 1152.987 C 3495.173 1152.994, 3496.691 1151.538, 3497.598 1149.750 C 3498.505 1147.963, 3500.731 1144.410, 3502.546 1141.856 L 3505.845 1137.211 3500.155 1135.137 C 3493.460 1132.696, 3483.720 1126.868, 3478.442 1122.146 L 3474.693 1118.791 3478.089 1116.146 C 3479.957 1114.691, 3484.346 1110.912, 3487.843 1107.750 C 3491.340 1104.588, 3494.606 1102, 3495.101 1102 C 3495.595 1102, 3495.998 1101.213, 3495.995 1100.250 C 3495.992 1099.279, 3493.523 1096.721, 3490.446 1094.500 L 3484.903 1090.500 3493.451 1090.211 L 3502 1089.922 3502 1081.961 L 3502 1074 3467.500 1074 L 3433 1074 3433 1068.849 L 3433 1063.698 3459.500 1064.249 L 3486 1064.801 3486 1057.400 L 3486 1050 3459.500 1050 L 3433 1050 3433 1045.349 L 3433 1040.698 3459.500 1041.249 L 3486 1041.801 3486 1034.400 L 3486 1027 3459.500 1027 L 3433 1027 3433 1022.371 L 3433 1017.742 3462.750 1018.121 L 3492.500 1018.500 3492.790 1010.250 L 3493.081 1002 3454.040 1002 L 3415 1002 3415 1038 L 3415 1074 3409.500 1074 L 3404 1074 3404 1050.500 L 3404 1027 3393.500 1027 L 3383 1027 3383 1015.565 C 3383 1009.276, 3383.410 1003.051, 3383.912 1001.732 C 3385.420 997.764, 3383.942 996.931, 3374.275 996.305 L 3365.236 995.719 3365.762 1011.360 M 3145.324 998.599 C 3145.092 999.204, 3145.036 1002.765, 3145.201 1006.514 L 3145.500 1013.330 3173.239 1013.415 C 3195.476 1013.483, 3201.079 1013.236, 3201.489 1012.168 C 3202.412 1009.764, 3202.023 999.132, 3200.989 998.493 C 3199.080 997.313, 3145.778 997.415, 3145.324 998.599 M 3212.950 1000.450 C 3211.932 1001.468, 3211.628 1013.867, 3212.562 1016.300 C 3213.042 1017.551, 3216.879 1017.686, 3239.062 1017.234 L 3265 1016.705 3265 1035.853 L 3265 1055 3239.438 1055 L 3213.877 1055 3214.188 1095.250 C 3214.549 1141.848, 3214.488 1141.492, 3222.716 1145.291 C 3227.222 1147.372, 3228.835 1147.497, 3250.500 1147.455 C 3269.941 1147.418, 3274.196 1147.140, 3277.996 1145.663 C 3284.636 1143.082, 3288.742 1138.584, 3290.902 1131.526 C 3293.069 1124.445, 3294.376 1113.025, 3293.221 1111.275 C 3292.776 1110.601, 3289.282 1108.986, 3285.456 1107.687 C 3281.630 1106.388, 3277.781 1105.005, 3276.902 1104.614 C 3275.535 1104.006, 3275.213 1105.087, 3274.673 1112.079 C 3273.841 1122.874, 3271.757 1127.103, 3266.500 1128.661 C 3261.452 1130.157, 3241.052 1130.350, 3237.335 1128.937 C 3235.798 1128.353, 3234.201 1127.341, 3233.786 1126.687 C 3233.370 1126.034, 3233.024 1113.463, 3233.015 1098.750 L 3233 1072 3248.943 1072 L 3264.885 1072 3265.193 1076.250 L 3265.500 1080.500 3274.841 1080.500 L 3284.183 1080.500 3284.155 1040.647 C 3284.140 1018.728, 3283.931 1000.597, 3283.691 1000.357 C 3282.768 999.435, 3213.875 999.525, 3212.950 1000.450 M 2690 1075.493 L 2690 1150 2699.500 1150 L 2709 1150 2709 1115 L 2709 1080 2760 1080 L 2811 1080 2811 1102.435 C 2811 1114.774, 2810.561 1126.024, 2810.025 1127.435 C 2809.051 1129.997, 2809.035 1130, 2796.717 1130 L 2784.384 1130 2786.786 1137.750 C 2790.418 1149.466, 2788.864 1148.506, 2804.118 1148.460 C 2820.324 1148.412, 2824.415 1146.905, 2827.902 1139.703 C 2829.996 1135.378, 2830.012 1134.746, 2829.757 1068.420 L 2829.500 1001.500 2759.750 1001.243 L 2690 1000.986 2690 1075.493 M 2303.836 1007.919 C 2300.721 1008.915, 2296.578 1010.715, 2294.630 1011.920 C 2289.194 1015.279, 2282.318 1023.529, 2280.141 1029.302 L 2278.182 1034.500 2288.341 1037.740 C 2293.928 1039.522, 2299.063 1040.985, 2299.750 1040.990 C 2300.438 1040.996, 2301 1040.082, 2301 1038.960 C 2301 1035.939, 2304.575 1029.480, 2307.535 1027.151 C 2316.073 1020.435, 2329.028 1022.748, 2334.402 1031.948 C 2337.406 1037.092, 2337.193 1047.115, 2333.956 1052.959 C 2330.376 1059.420, 2325.059 1061.853, 2312.741 1062.662 L 2303 1063.302 2303 1072.017 L 2303 1080.733 2312.750 1081.205 C 2327.989 1081.944, 2335.102 1086.271, 2337.896 1096.500 C 2341.637 1110.196, 2335.770 1123.058, 2324.484 1125.900 C 2313.365 1128.700, 2303.227 1123.480, 2299.965 1113.275 C 2299.301 1111.199, 2298.417 1109.127, 2297.999 1108.670 C 2297.405 1108.021, 2277.420 1113.189, 2276.438 1114.247 C 2275.666 1115.077, 2280.574 1125.279, 2283.777 1129.500 C 2287.639 1134.591, 2295.649 1140.151, 2301.986 1142.138 C 2303.919 1142.744, 2310.320 1143.460, 2316.211 1143.729 C 2325.138 1144.137, 2328.055 1143.874, 2333.724 1142.152 C 2350.656 1137.009, 2360.394 1124.940, 2361.723 1107.450 C 2362.988 1090.793, 2354.298 1077.584, 2338.649 1072.382 L 2333.500 1070.670 2339.473 1068.677 C 2347.399 1066.033, 2354.953 1058.668, 2357.450 1051.150 C 2359.869 1043.868, 2359.293 1032.185, 2356.205 1025.873 C 2351.923 1017.123, 2343.095 1010.175, 2332.764 1007.425 C 2325.313 1005.441, 2310.809 1005.689, 2303.836 1007.919 M 2446.500 1007.402 C 2428.002 1013.268, 2417.469 1029.413, 2413.976 1057.254 C 2412.118 1072.060, 2413.176 1100.417, 2415.939 1109.912 C 2422.449 1132.278, 2433.919 1142.823, 2452.821 1143.819 C 2469.479 1144.698, 2481.912 1138.383, 2490.244 1124.811 C 2495.372 1116.460, 2498.133 1099.112, 2496.184 1087.500 C 2494.337 1076.501, 2491.234 1070.058, 2484.588 1063.421 C 2477.440 1056.284, 2471.964 1054, 2462 1054 C 2452.601 1054, 2446.661 1056.319, 2440.318 1062.463 L 2435 1067.613 2435 1064.379 C 2435 1057.963, 2437.198 1045.545, 2439.414 1039.439 C 2442.232 1031.677, 2445.335 1027.671, 2450.566 1025.043 C 2458.963 1020.824, 2467.078 1023.293, 2470.478 1031.102 C 2471.531 1033.521, 2472.497 1035.655, 2472.624 1035.845 C 2472.965 1036.352, 2492.343 1029.009, 2493.410 1027.968 C 2494.338 1027.063, 2490.646 1020.624, 2486.622 1016.130 C 2483.426 1012.561, 2477.924 1009.352, 2471.972 1007.584 C 2465.615 1005.696, 2452.182 1005.600, 2446.500 1007.402 M 2574.268 1007.900 C 2568.031 1010.210, 2564.320 1012.733, 2560.123 1017.513 C 2550.576 1028.386, 2546.012 1046.980, 2546.012 1075 C 2546.012 1112.517, 2553.627 1132.593, 2571 1140.877 C 2575.948 1143.237, 2577.655 1143.500, 2588 1143.500 C 2598.544 1143.500, 2599.969 1143.269, 2605.143 1140.728 C 2620.076 1133.393, 2628.183 1115.747, 2629.942 1086.746 C 2630.373 1079.653, 2630.369 1068.370, 2629.933 1061.674 C 2628.063 1032.908, 2620.135 1016.113, 2605.155 1009.188 C 2597.421 1005.613, 2582.160 1004.977, 2574.268 1007.900 M 2927 1007.534 C 2927 1007.827, 2917.775 1037.946, 2906.500 1074.464 C 2895.225 1110.982, 2886 1141.116, 2886 1141.430 C 2886 1141.743, 2891.113 1142, 2897.362 1142 L 2908.724 1142 2914.513 1122.500 L 2920.302 1103 2941 1103 L 2961.697 1103 2964.916 1114.250 C 2966.686 1120.438, 2969.256 1129.213, 2970.628 1133.750 L 2973.121 1142 2985.677 1142 C 2997.148 1142, 2998.193 1141.849, 2997.764 1140.250 C 2997.505 1139.287, 2988.123 1108.912, 2976.915 1072.750 L 2956.535 1007 2941.767 1007 C 2933.645 1007, 2927 1007.240, 2927 1007.534 M 3052 1074.500 L 3052 1142 3064 1142 L 3076 1142 3076 1074.500 L 3076 1007 3064 1007 L 3052 1007 3052 1074.500 M 2709 1041 L 2709 1063 2729.500 1063 L 2750 1063 2750 1041 L 2750 1019 2729.500 1019 L 2709 1019 2709 1041 M 2768 1041 L 2768 1063 2789.500 1063 L 2811 1063 2811 1041 L 2811 1019 2789.500 1019 L 2768 1019 2768 1041 M 3136.209 1029.130 L 3136.500 1037.286 3172 1037.309 L 3207.500 1037.332 3207.500 1029.416 L 3207.500 1021.500 3171.709 1021.237 L 3135.919 1020.975 3136.209 1029.130 M 2579.971 1026.250 C 2575.903 1029.004, 2572.506 1035.518, 2570.977 1043.500 C 2569.216 1052.691, 2568.573 1084.214, 2569.889 1096.786 C 2571.358 1110.816, 2573.304 1117.270, 2577.419 1121.760 C 2580.358 1124.967, 2581.341 1125.392, 2586.605 1125.731 C 2596.750 1126.384, 2601.511 1121.731, 2604.735 1108.010 C 2606.184 1101.846, 2606.500 1095.841, 2606.500 1074.500 C 2606.500 1047.272, 2605.762 1040.573, 2601.848 1032.288 C 2600.751 1029.966, 2598.378 1027.161, 2596.561 1026.038 C 2591.949 1023.187, 2584.353 1023.285, 2579.971 1026.250 M 2939.061 1030.250 C 2938.454 1033.138, 2935.041 1046.384, 2931.478 1059.687 C 2927.915 1072.990, 2925 1084.128, 2925 1084.437 C 2925 1084.747, 2932.200 1085, 2941 1085 C 2949.800 1085, 2957 1084.747, 2957 1084.437 C 2957 1084.127, 2955.026 1077.040, 2952.613 1068.687 C 2950.201 1060.334, 2946.717 1047.088, 2944.871 1039.250 C 2943.025 1031.412, 2941.211 1025, 2940.840 1025 C 2940.469 1025, 2939.669 1027.362, 2939.061 1030.250 M 3383 1072.563 L 3383 1102.127 3386.250 1101.813 L 3389.500 1101.500 3389.765 1072.250 L 3390.030 1043 3386.515 1043 L 3383 1043 3383 1072.563 M 3147 1053.733 L 3147 1061.500 3173.250 1061.420 L 3199.500 1061.339 3199.500 1053.920 L 3199.500 1046.500 3173.250 1046.233 L 3147 1045.967 3147 1053.733 M 3147.208 1077.640 L 3147.500 1085.313 3173.500 1085.342 L 3199.500 1085.372 3199.500 1077.936 L 3199.500 1070.500 3173.208 1070.233 L 3146.915 1069.967 3147.208 1077.640 M 2450.685 1071.961 C 2446.333 1073.354, 2441.089 1077.798, 2437.804 1082.881 C 2434.938 1087.314, 2434.839 1087.842, 2435.343 1096 C 2435.958 1105.962, 2438.761 1115.686, 2442.387 1120.441 C 2447.902 1127.672, 2459.667 1128.866, 2466.477 1122.886 C 2471.868 1118.153, 2473.500 1112.486, 2473.500 1098.500 C 2473.500 1084.384, 2471.781 1078.461, 2466.522 1074.449 C 2462.853 1071.651, 2455.343 1070.471, 2450.685 1071.961 M 3433 1109.911 C 3433 1125.478, 3433.278 1129.849, 3434.250 1129.539 C 3434.938 1129.320, 3439.775 1127.933, 3445 1126.457 C 3450.225 1124.981, 3454.893 1123.409, 3455.373 1122.964 C 3455.859 1122.513, 3455.361 1120.900, 3454.251 1119.327 C 3451.172 1114.962, 3446.971 1106.261, 3443.956 1098 L 3441.219 1090.500 3437.110 1090.193 L 3433 1089.885 3433 1109.911 M 3458 1091.062 C 3458 1092.609, 3465.137 1107, 3465.904 1107 C 3466.596 1107, 3478.730 1094.688, 3480.933 1091.750 C 3482.164 1090.107, 3481.501 1090, 3470.122 1090 C 3462.238 1090, 3458 1090.371, 3458 1091.062 M 3145.122 1094 C 3144.744 1094.275, 3144.374 1107.454, 3144.300 1123.286 L 3144.165 1152.073 3153.332 1151.786 L 3162.500 1151.500 3162.802 1146.250 L 3163.105 1141 3172.992 1141 L 3182.879 1141 3183.190 1144.750 L 3183.500 1148.500 3192.500 1148.500 L 3201.500 1148.500 3201.505 1121.250 C 3201.507 1106.263, 3201.282 1093.985, 3201.005 1093.967 C 3195.598 1093.615, 3145.610 1093.644, 3145.122 1094 M 3163 1117.500 L 3163 1126 3173 1126 L 3183 1126 3183 1117.500 L 3183 1109 3173 1109 L 3163 1109 3163 1117.500" fill="#2D2929"/>
  </g>
</svg>
