<?xml version="1.0" encoding="UTF-8"?>
<svg xmlns="http://www.w3.org/2000/svg" width="3552" height="1500" viewBox="0 0 3552 1500" role="img" aria-labelledby="title-zds-logo-h-cn-vector">
  <title id="title-zds-logo-h-cn-vector">账大师 中文版 360元AI记账 Logo</title>
  <defs>
    <linearGradient id="zds-logo-h-cn-vector-gradient" x1="24" y1="24" x2="1191" y2="1475" gradientUnits="userSpaceOnUse">
      <stop offset="0" stop-color="#075BFF"/>
      <stop offset="0.55" stop-color="#008BFF"/>
      <stop offset="1" stop-color="#12D1DF"/>
    </linearGradient>
  </defs>
  <g transform="translate(-87 -58)">
    <path fill-rule="evenodd" d="M 375.500 83.190 C 372.803 84.713, 367.672 89, 368.546 89 C 368.930 89, 368.724 89.628, 368.087 90.395 C 367.451 91.162, 366.999 92.174, 367.083 92.645 C 367.168 93.115, 367.184 165.838, 367.118 254.250 L 367 415 299 415 C 261.600 415, 231 414.887, 231 414.750 C 231 414.613, 230.290 410.900, 229.423 406.500 C 228.555 402.100, 227.864 396.604, 227.886 394.286 C 227.908 391.968, 227.485 389.800, 226.946 389.467 C 226.408 389.134, 226.238 388.424, 226.568 387.889 C 227.603 386.215, 223.187 373.629, 220.592 370.857 C 219.232 369.404, 218.429 367.904, 218.809 367.524 C 219.189 367.144, 219.050 366.964, 218.500 367.123 C 217.950 367.283, 215.134 366.608, 212.242 365.624 C 205.930 363.475, 199.741 363.282, 173.500 364.414 C 160.010 364.996, 152.608 365.727, 150.760 366.659 C 149.253 367.419, 147.057 369.927, 145.881 372.233 C 143.764 376.383, 143.744 376.996, 143.917 433.462 C 144.077 486.251, 144.225 490.761, 145.893 494 C 146.884 495.925, 149.226 498.400, 151.098 499.500 C 154.434 501.461, 156.567 501.506, 260.399 501.785 L 366.298 502.070 365.601 563.285 C 365.153 602.653, 365.295 634.493, 366 652.500 C 366.602 667.900, 367.085 684.049, 367.072 688.386 C 367.060 692.723, 367.281 696.646, 367.563 697.102 C 367.845 697.559, 368.256 701.435, 368.476 705.716 C 369.011 716.136, 372.554 739.873, 375.654 753.808 C 377.037 760.028, 377.882 765.864, 377.532 766.778 C 377.181 767.691, 377.224 768.109, 377.628 767.705 C 378.031 767.302, 378.909 768.666, 379.579 770.736 C 383.902 784.097, 387.330 795.608, 387.178 796.250 C 387.080 796.662, 387.477 797, 388.059 797 C 388.641 797, 388.841 797.449, 388.502 797.997 C 388.163 798.545, 390.229 803.833, 393.093 809.747 C 395.957 815.661, 398.308 821.043, 398.317 821.706 C 398.326 822.369, 398.639 822.723, 399.013 822.492 C 399.386 822.261, 400.738 824.306, 402.017 827.036 C 403.296 829.766, 404.685 832, 405.104 832 C 405.923 832, 407.525 836.014, 407.198 837.250 C 407.089 837.663, 407.450 838, 408 838 C 408.550 838, 409 838.643, 409 839.429 C 409 840.214, 409.616 841.473, 410.368 842.225 C 411.121 842.978, 412.051 844.585, 412.435 845.797 C 412.820 847.008, 413.554 848, 414.067 848 C 414.580 848, 415 848.675, 415 849.500 C 415 850.325, 415.420 851, 415.933 851 C 416.912 851, 418.556 854.908, 418.173 856.324 C 418.051 856.778, 418.412 856.864, 418.975 856.515 C 419.912 855.936, 420.448 857.282, 420.094 859.324 C 420.015 859.778, 420.299 859.935, 420.725 859.675 C 421.606 859.135, 434.333 879.751, 434.333 881.717 C 434.333 882.423, 434.555 882.778, 434.827 882.506 C 435.741 881.592, 438.123 885.990, 437.398 887.252 C 437.003 887.938, 437.054 888.160, 437.511 887.745 C 437.969 887.330, 439.837 889.090, 441.662 891.657 C 444.719 895.957, 444.843 896.417, 443.240 897.487 C 438.982 900.328, 423.600 908.103, 413.921 912.306 C 408.103 914.833, 396.542 920.297, 388.231 924.450 C 379.919 928.602, 372.629 932, 372.030 932 C 371.431 932, 364.316 935.308, 356.220 939.350 C 348.124 943.393, 336.775 948.759, 331 951.274 C 325.225 953.789, 315.100 958.530, 308.500 961.810 C 301.900 965.089, 292.675 969.355, 288 971.290 C 275.796 976.340, 235.958 996.413, 233 999.002 C 229.552 1002.021, 225.411 1004.062, 224.466 1003.210 C 224.034 1002.820, 224.003 1003.063, 224.399 1003.750 C 225.056 1004.892, 223.873 1005.475, 221.676 1005.094 C 221.222 1005.015, 221.076 1005.314, 221.350 1005.758 C 221.625 1006.202, 220.196 1007.656, 218.175 1008.990 C 216.154 1010.323, 211.637 1013.619, 208.138 1016.312 C 204.639 1019.006, 201.147 1021.302, 200.378 1021.415 C 199.609 1021.528, 198.422 1022.246, 197.740 1023.012 C 196.703 1024.176, 196.827 1024.173, 198.500 1022.997 C 199.600 1022.224, 196.034 1025.845, 190.575 1031.045 C 185.116 1036.245, 180.301 1040.500, 179.875 1040.500 C 179.449 1040.500, 178.538 1041.063, 177.850 1041.750 C 177.162 1042.438, 176.936 1043, 177.347 1043 C 178.155 1043, 167.113 1056.223, 163.569 1059.500 C 162.379 1060.600, 162.081 1061.050, 162.906 1060.500 C 163.867 1059.860, 163.703 1060.453, 162.453 1062.147 C 161.379 1063.603, 160.151 1064.582, 159.725 1064.323 C 159.299 1064.063, 159.065 1064.222, 159.205 1064.676 C 159.543 1065.772, 155.784 1072, 154.784 1072 C 154.353 1072, 154 1072.675, 154 1073.500 C 154 1074.325, 153.550 1075, 153 1075 C 152.450 1075, 152 1075.675, 152 1076.500 C 152 1077.325, 151.523 1078, 150.941 1078 C 150.359 1078, 150.162 1078.453, 150.504 1079.007 C 150.847 1079.561, 150.498 1080.255, 149.730 1080.550 C 148.962 1080.845, 148.322 1081.629, 148.308 1082.293 C 148.270 1084.049, 140.925 1096, 139.883 1096 C 139.397 1096, 139.053 1096.338, 139.118 1096.750 C 139.432 1098.735, 138.901 1100.057, 138.011 1099.507 C 137.460 1099.166, 137.268 1099.536, 137.578 1100.342 C 137.883 1101.137, 136.526 1104.977, 134.563 1108.876 C 132.599 1112.774, 130.803 1116.985, 130.571 1118.232 C 130.339 1119.479, 130.059 1120.612, 129.949 1120.750 C 129.840 1120.888, 129.687 1121.338, 129.610 1121.750 C 129.533 1122.162, 129.112 1123.063, 128.676 1123.750 C 128.239 1124.438, 128.145 1125, 128.467 1125 C 128.788 1125, 128.419 1126.238, 127.647 1127.750 C 125.621 1131.718, 119.435 1153.823, 117.084 1165.500 C 111.314 1194.150, 111.500 1188.865, 111.500 1324 C 111.500 1462.789, 111.250 1457.384, 117.968 1463.968 C 124.559 1470.429, 130.126 1471.410, 160.500 1471.458 C 190.032 1471.506, 193.869 1470.811, 197.535 1464.750 C 199.449 1461.585, 199.517 1458.437, 200.146 1344 C 200.789 1227.194, 201.372 1206.596, 204.555 1188.347 C 205.368 1183.681, 205.775 1179.445, 205.458 1178.932 C 205.141 1178.419, 205.411 1178, 206.058 1178 C 206.772 1178, 207.046 1177.020, 206.755 1175.500 C 206.492 1174.125, 206.665 1173, 207.139 1173 C 207.612 1173, 208 1171.673, 208 1170.052 C 208 1162.781, 218.295 1137.669, 227.494 1122.500 C 230.638 1117.316, 234.881 1111.716, 232.492 1115.905 C 231.951 1116.853, 232.071 1117.074, 232.862 1116.585 C 233.506 1116.187, 233.789 1115.468, 233.491 1114.986 C 232.948 1114.108, 242.128 1102.971, 247.757 1097.679 C 249.407 1096.128, 251.599 1094.718, 252.628 1094.547 C 253.658 1094.375, 254.391 1093.741, 254.257 1093.138 C 254.123 1092.535, 257.948 1089.400, 262.757 1086.170 C 273.366 1079.045, 277.494 1076.852, 278.534 1077.790 C 278.966 1078.180, 279.017 1077.970, 278.646 1077.322 C 278.256 1076.641, 278.789 1075.884, 279.910 1075.529 C 280.976 1075.190, 283.539 1073.766, 285.605 1072.364 C 287.670 1070.963, 290.135 1069.667, 291.082 1069.484 C 293.256 1069.066, 299.026 1066.160, 301 1064.490 C 303.473 1062.397, 408.922 1010, 410.661 1010 C 411.227 1010, 420.198 1005.690, 430.596 1000.423 C 440.993 995.156, 450.400 990.663, 451.500 990.439 C 452.600 990.215, 460.885 986.286, 469.912 981.707 L 486.323 973.382 517.912 1005.327 C 535.285 1022.897, 564.700 1052.534, 583.278 1071.187 C 604.270 1092.263, 616.795 1105.555, 616.368 1106.300 C 615.989 1106.960, 616.030 1107.184, 616.457 1106.799 C 617.665 1105.710, 692.227 1180.808, 691.388 1182.268 C 690.998 1182.945, 691.036 1183.178, 691.473 1182.783 C 691.909 1182.389, 698.179 1188.014, 705.406 1195.283 L 718.545 1208.500 664.522 1262.787 C 634.810 1292.644, 586.875 1340.794, 558 1369.787 L 505.500 1422.500 505.177 1358 C 504.769 1276.720, 504.016 1257.720, 500.876 1249.500 C 499.615 1246.200, 498.688 1243.129, 498.817 1242.676 C 498.945 1242.222, 498.701 1242.052, 498.275 1242.298 C 497.849 1242.543, 496.600 1241.833, 495.500 1240.718 C 494.400 1239.604, 494.175 1239.059, 495 1239.507 C 495.826 1239.955, 496.150 1239.936, 495.721 1239.465 C 495.293 1238.994, 494.393 1238.528, 493.721 1238.429 C 493.049 1238.331, 490.250 1237.442, 487.500 1236.455 C 483.415 1234.989, 478.306 1234.580, 459.587 1234.221 C 436.038 1233.769, 431.416 1234.263, 426 1237.810 C 424.625 1238.711, 423.163 1239.460, 422.750 1239.474 C 422.337 1239.488, 421.980 1239.829, 421.957 1240.232 C 421.933 1240.634, 421.145 1242.659, 420.207 1244.732 C 418.688 1248.084, 418.445 1254.371, 418 1301.655 C 417.725 1330.890, 417.837 1354.601, 418.250 1354.346 C 418.662 1354.091, 419 1366.760, 419 1382.500 C 419 1398.240, 418.663 1410.911, 418.250 1410.657 C 417.593 1410.253, 417.591 1514.228, 418.248 1521.167 C 418.386 1522.633, 418.748 1523.758, 419.052 1523.667 C 419.355 1523.575, 421.032 1525.122, 422.778 1527.105 C 429.396 1534.621, 416.671 1534.117, 589.128 1533.684 C 674.032 1533.470, 744.874 1532.966, 746.554 1532.563 L 749.609 1531.830 749.554 1495.665 C 749.503 1461.277, 749.401 1459.328, 747.483 1456 C 746.197 1453.768, 743.665 1451.604, 740.495 1450.029 L 735.523 1447.558 674.511 1447.848 L 613.500 1448.139 620.926 1440.619 C 625.010 1436.483, 628.657 1433.288, 629.030 1433.519 C 629.404 1433.750, 630.753 1432.827, 632.029 1431.469 C 633.305 1430.111, 633.943 1429, 633.448 1429 C 632.952 1429, 636.103 1425.423, 640.450 1421.050 C 644.797 1416.678, 648.658 1413.289, 649.031 1413.519 C 649.404 1413.750, 650.753 1412.827, 652.029 1411.469 C 653.305 1410.111, 653.944 1409, 653.449 1409 C 652.955 1409, 655.880 1405.647, 659.951 1401.550 C 664.021 1397.452, 667.654 1394.286, 668.023 1394.514 C 668.392 1394.742, 669.972 1393.595, 671.534 1391.964 C 673.096 1390.334, 673.964 1389, 673.462 1389 C 672.960 1389, 675.880 1385.647, 679.951 1381.550 C 684.021 1377.452, 687.657 1374.288, 688.030 1374.519 C 688.404 1374.750, 689.753 1373.827, 691.029 1372.469 C 692.305 1371.111, 692.943 1370, 692.448 1370 C 691.952 1370, 695.103 1366.423, 699.450 1362.050 C 703.797 1357.678, 707.658 1354.289, 708.031 1354.519 C 708.404 1354.750, 709.753 1353.827, 711.029 1352.469 C 712.305 1351.111, 712.944 1350, 712.449 1350 C 711.955 1350, 714.880 1346.647, 718.951 1342.550 C 723.021 1338.452, 726.654 1335.286, 727.023 1335.514 C 727.392 1335.742, 728.972 1334.595, 730.534 1332.964 C 732.096 1331.334, 732.964 1330, 732.462 1330 C 731.960 1330, 734.880 1326.647, 738.951 1322.550 C 743.021 1318.452, 746.657 1315.288, 747.030 1315.519 C 747.404 1315.750, 748.787 1314.715, 750.105 1313.219 L 752.500 1310.500 749.500 1312.995 C 747.850 1314.368, 751.196 1310.993, 756.935 1305.495 C 762.675 1299.998, 767.677 1295.593, 768.053 1295.706 C 768.428 1295.819, 769.773 1294.806, 771.042 1293.456 C 772.310 1292.105, 772.943 1291, 772.448 1291 C 771.952 1291, 775.103 1287.423, 779.450 1283.050 C 783.797 1278.678, 787.658 1275.289, 788.031 1275.519 C 788.404 1275.750, 789.753 1274.827, 791.029 1273.469 C 792.305 1272.111, 792.944 1271, 792.449 1271 C 791.955 1271, 794.880 1267.647, 798.951 1263.550 C 803.021 1259.452, 806.654 1256.286, 807.023 1256.514 C 807.392 1256.742, 808.972 1255.595, 810.534 1253.964 C 812.096 1252.334, 812.964 1251, 812.462 1251 C 811.960 1251, 814.880 1247.647, 818.951 1243.550 C 823.021 1239.452, 826.654 1236.286, 827.023 1236.514 C 827.392 1236.742, 828.972 1235.595, 830.534 1233.964 C 832.096 1232.334, 832.964 1231, 832.462 1231 C 831.960 1231, 834.880 1227.647, 838.951 1223.550 C 843.021 1219.452, 846.654 1216.286, 847.023 1216.514 C 847.392 1216.742, 849 1215.482, 850.597 1213.714 L 853.500 1210.500 850.460 1213 C 848.788 1214.375, 851.713 1211.387, 856.960 1206.361 C 862.207 1201.335, 866.769 1197.381, 867.097 1197.575 C 867.425 1197.770, 868.972 1196.595, 870.534 1194.964 C 872.096 1193.334, 872.964 1192, 872.462 1192 C 871.960 1192, 874.880 1188.647, 878.951 1184.550 C 883.021 1180.452, 886.657 1177.288, 887.030 1177.519 C 887.404 1177.750, 888.753 1176.827, 890.029 1175.469 C 891.305 1174.111, 891.943 1173, 891.448 1173 C 890.952 1173, 894.103 1169.423, 898.450 1165.050 C 902.797 1160.678, 906.658 1157.289, 907.031 1157.519 C 907.404 1157.750, 908.753 1156.827, 910.029 1155.469 C 911.305 1154.111, 911.944 1153, 911.449 1153 C 910.955 1153, 913.880 1149.647, 917.951 1145.550 C 922.021 1141.452, 925.654 1138.286, 926.023 1138.514 C 926.874 1139.040, 932.206 1133.540, 931.515 1132.848 C 930.939 1132.272, 945.673 1118.759, 946.384 1119.211 C 947.118 1119.678, 951.979 1114.775, 951.519 1114.031 C 951.289 1113.658, 954.678 1109.797, 959.050 1105.450 C 963.423 1101.103, 967 1097.952, 967 1098.448 C 967 1098.943, 968.111 1098.305, 969.469 1097.029 C 970.827 1095.753, 971.750 1094.404, 971.519 1094.031 C 971.289 1093.658, 974.678 1089.797, 979.050 1085.450 C 983.423 1081.103, 987 1077.952, 987 1078.448 C 987 1078.943, 988.111 1078.305, 989.469 1077.029 C 990.827 1075.753, 991.736 1074.382, 991.489 1073.982 C 991.012 1073.210, 1005.115 1060.257, 1005.790 1060.848 C 1006.463 1061.437, 1011.958 1055.741, 1011.473 1054.956 C 1009.917 1052.439, 1028.444 1040.979, 1034 1041.020 C 1035.375 1041.031, 1041.220 1043.055, 1046.989 1045.520 C 1052.758 1047.984, 1057.998 1050, 1058.634 1050 C 1060 1050, 1076.965 1058.283, 1089 1064.825 C 1093.675 1067.367, 1097.998 1069.522, 1098.608 1069.614 C 1100.637 1069.921, 1107.944 1075.723, 1107.216 1076.450 C 1106.822 1076.844, 1106.950 1077.076, 1107.500 1076.965 C 1109.641 1076.533, 1111.089 1077.047, 1110.485 1078.025 C 1110.136 1078.588, 1110.222 1078.985, 1110.676 1078.906 C 1112.806 1078.536, 1114.052 1079.106, 1113.405 1080.155 C 1112.994 1080.819, 1113.127 1081.039, 1113.719 1080.674 C 1114.950 1079.913, 1132.274 1092.748, 1131.565 1093.895 C 1131.293 1094.335, 1132.405 1095.972, 1134.036 1097.534 C 1135.666 1099.096, 1137 1099.971, 1137 1099.479 C 1137 1098.986, 1139.046 1100.590, 1141.546 1103.042 C 1146.670 1108.067, 1156.254 1120.038, 1153.922 1118.500 C 1153.088 1117.950, 1153.362 1118.400, 1154.530 1119.500 C 1157.785 1122.564, 1160.226 1126.460, 1166.960 1139.334 C 1170.364 1145.843, 1172.896 1151.829, 1172.586 1152.636 C 1172.270 1153.460, 1172.457 1153.836, 1173.011 1153.493 C 1173.555 1153.157, 1174 1153.063, 1174 1153.285 C 1174 1153.506, 1175.582 1158.287, 1177.517 1163.909 C 1179.451 1169.530, 1181.106 1175.338, 1181.195 1176.815 C 1181.284 1178.292, 1181.593 1179.942, 1181.881 1180.482 C 1182.169 1181.023, 1182.478 1182.148, 1182.567 1182.982 C 1182.655 1183.817, 1183.665 1190.575, 1184.811 1198 C 1185.957 1205.425, 1187.201 1215.831, 1187.575 1221.124 C 1187.949 1226.417, 1188.329 1279.517, 1188.419 1339.124 C 1188.565 1435.848, 1188.757 1448.142, 1190.212 1453.474 C 1191.108 1456.759, 1191.583 1459.866, 1191.266 1460.378 C 1190.933 1460.918, 1191.248 1460.965, 1192.015 1460.490 C 1192.985 1459.891, 1193.164 1460.132, 1192.681 1461.388 C 1192.290 1462.407, 1192.424 1462.856, 1193.011 1462.493 C 1193.555 1462.157, 1194 1462.320, 1194 1462.855 C 1194 1464.824, 1204.007 1469.915, 1210.170 1471.082 C 1219.168 1472.785, 1259.187 1472.808, 1264.976 1471.112 C 1270.316 1469.548, 1275.495 1464.439, 1277.041 1459.208 C 1277.819 1456.577, 1278.028 1419.918, 1277.761 1333 C 1277.353 1199.575, 1277.393 1200.603, 1271.402 1171.236 C 1270.025 1164.490, 1269.217 1158.458, 1269.604 1157.831 C 1270.066 1157.084, 1269.861 1156.968, 1269.010 1157.494 C 1268.028 1158.101, 1267.836 1157.640, 1268.223 1155.614 C 1268.505 1154.138, 1268.490 1153.176, 1268.190 1153.477 C 1267.890 1153.777, 1265.321 1146.418, 1262.481 1137.124 C 1259.642 1127.829, 1255.437 1116.321, 1253.138 1111.551 C 1250.839 1106.780, 1249.262 1102.385, 1249.634 1101.784 C 1250.069 1101.079, 1249.839 1100.981, 1248.985 1101.510 C 1248.015 1102.109, 1247.836 1101.868, 1248.319 1100.612 C 1248.710 1099.593, 1248.576 1099.144, 1247.989 1099.507 C 1247.445 1099.843, 1247 1099.711, 1247 1099.214 C 1247 1098.717, 1245.235 1095.580, 1243.079 1092.243 C 1240.922 1088.906, 1239.422 1085.911, 1239.745 1085.588 C 1240.069 1085.265, 1239.782 1085, 1239.108 1085 C 1238.434 1085, 1238.160 1084.550, 1238.500 1084 C 1238.840 1083.450, 1238.641 1083, 1238.059 1083 C 1237.477 1083, 1237 1082.325, 1237 1081.500 C 1237 1080.675, 1236.660 1080, 1236.244 1080 C 1235.828 1080, 1234.934 1078.763, 1234.257 1077.250 C 1233.580 1075.737, 1231.697 1072.952, 1230.071 1071.061 C 1228.446 1069.169, 1227.385 1067.187, 1227.713 1066.656 C 1228.041 1066.125, 1227.789 1066.012, 1227.155 1066.405 C 1226.520 1066.797, 1225.944 1066.641, 1225.875 1066.059 C 1225.806 1065.477, 1225.694 1064.588, 1225.625 1064.083 C 1225.556 1063.579, 1225.090 1062.792, 1224.590 1062.333 C 1224.053 1061.842, 1223.992 1062.116, 1224.441 1063 C 1224.860 1063.825, 1224.012 1063.053, 1222.557 1061.285 C 1221.101 1059.517, 1219.949 1057.942, 1219.997 1057.785 C 1220.044 1057.628, 1217.833 1055.065, 1215.082 1052.089 C 1212.332 1049.113, 1210.272 1046.369, 1210.505 1045.992 C 1210.966 1045.245, 1205.434 1039.584, 1204.799 1040.152 C 1203.998 1040.869, 1189.131 1026.597, 1189.707 1025.665 C 1190.038 1025.129, 1189.856 1024.971, 1189.302 1025.313 C 1188.748 1025.656, 1187.441 1025.242, 1186.397 1024.394 C 1185.354 1023.546, 1185.175 1023.182, 1186 1023.586 C 1186.882 1024.018, 1187.157 1023.945, 1186.667 1023.410 C 1186.208 1022.910, 1185.428 1022.500, 1184.934 1022.500 C 1183.895 1022.500, 1172.666 1013.952, 1172.167 1012.781 C 1171.983 1012.352, 1171.435 1012, 1170.948 1012 C 1169.079 1012, 1155.989 1002.827, 1156.554 1001.913 C 1156.881 1001.384, 1156.778 1001.051, 1156.324 1001.173 C 1154.496 1001.668, 1151.001 999.804, 1151.646 998.678 C 1152.017 998.030, 1151.987 997.799, 1151.579 998.164 C 1151.172 998.530, 1143.112 994.801, 1133.669 989.877 C 1124.226 984.954, 1111.775 978.638, 1106 975.841 C 1095.202 970.611, 1089.032 967.523, 993.287 919.428 C 962.371 903.898, 936.496 890.924, 935.787 890.596 C 934.769 890.124, 934.761 889.878, 935.750 889.417 C 936.438 889.096, 937 888.196, 937 887.417 C 937 886.638, 937.450 886, 938 886 C 938.550 886, 939 885.325, 939 884.500 C 939 883.675, 939.477 883, 940.059 883 C 940.641 883, 940.857 882.578, 940.538 882.061 C 940.219 881.545, 940.755 880.659, 941.729 880.092 C 942.703 879.525, 943.140 879.047, 942.699 879.030 C 942.259 879.014, 943.159 877.312, 944.699 875.250 C 948.657 869.951, 949.665 868.998, 950.464 869.798 C 950.851 870.184, 951.058 870.050, 950.925 869.500 C 950.524 867.846, 952.142 864.970, 953.130 865.580 C 953.636 865.893, 953.985 865.778, 953.906 865.324 C 953.577 863.431, 954.057 861.917, 954.833 862.397 C 955.292 862.680, 955.684 862.369, 955.705 861.706 C 955.759 860.007, 965.831 844.880, 968.384 842.663 C 969.548 841.653, 969.873 841.157, 969.106 841.561 C 968.121 842.080, 968.249 841.388, 969.540 839.202 C 970.545 837.501, 971.847 836.381, 972.433 836.715 C 973.020 837.048, 973.180 836.966, 972.790 836.534 C 972.097 835.766, 974.560 829.995, 976.005 829 C 976.754 828.484, 981.505 819.500, 981.028 819.500 C 980.881 819.500, 982.996 814.894, 985.728 809.264 C 988.460 803.634, 991.012 799.346, 991.400 799.734 C 991.788 800.122, 991.841 799.750, 991.518 798.907 C 991.194 798.064, 992.254 794.253, 993.873 790.437 C 996.833 783.460, 1000.115 773.217, 1000.582 769.500 C 1000.720 768.400, 1000.905 767.500, 1000.993 767.500 C 1001.242 767.500, 1001.865 764.838, 1002.515 761 C 1002.841 759.075, 1003.517 756.150, 1004.017 754.500 C 1005.254 750.418, 1009 727.926, 1009 724.580 C 1009 723.096, 1009.337 722.091, 1009.750 722.345 C 1010.805 722.997, 1010.813 722.161, 1010.841 606.250 L 1010.867 502 1113.884 502 C 1189.970 502, 1218.287 501.689, 1222.201 500.808 C 1225.115 500.153, 1227.950 499.741, 1228.500 499.892 C 1229.050 500.043, 1229.199 499.866, 1228.831 499.498 C 1228.463 499.130, 1229.138 497.713, 1230.331 496.349 C 1231.524 494.986, 1232.793 492.887, 1233.150 491.685 C 1233.508 490.483, 1233.841 464.750, 1233.891 434.500 L 1233.980 379.500 1231.574 374.332 C 1230.251 371.490, 1229.356 368.978, 1229.584 368.749 C 1230.263 368.070, 1228.622 367.987, 1202.289 367.359 C 1179.234 366.810, 1164.869 367.578, 1159.472 369.649 C 1157.288 370.487, 1156.007 375.652, 1153.931 392 C 1152.849 400.525, 1151.486 408.963, 1150.904 410.750 L 1149.845 414 1080.922 414 L 1012 414 1011.785 353.750 C 1011.521 279.984, 1011.587 286.073, 1011.057 286.607 C 1010.813 286.852, 1010.018 284.679, 1009.291 281.776 C 1007.381 274.161, 999.782 258.871, 995.614 254.257 C 993.646 252.079, 992.264 250.070, 992.542 249.791 C 992.821 249.513, 992.362 248.716, 991.524 248.020 C 990.686 247.324, 990 247.065, 990 247.445 C 990 247.824, 988.087 246.572, 985.750 244.662 C 980.494 240.369, 972.809 236.154, 963 232.187 C 955.904 229.317, 924.375 219.622, 919 218.657 C 916.227 218.160, 905.428 214.971, 888 209.504 C 881.675 207.519, 871.550 204.411, 865.500 202.597 C 856.280 199.832, 854.905 199.170, 857 198.507 C 858.375 198.072, 871.957 191.524, 887.183 183.957 C 902.408 176.390, 915.193 170.491, 915.593 170.849 C 915.993 171.207, 916.026 170.985, 915.666 170.355 C 914.999 169.188, 917.685 167.485, 919.500 167.925 C 920.050 168.058, 920.168 167.834, 919.761 167.428 C 919.355 167.022, 921.063 164.300, 923.558 161.381 C 929.602 154.306, 929.987 151.498, 929.994 114.423 L 930 84.346 923.635 83.173 C 914.658 81.519, 378.429 81.536, 375.500 83.190 M 454 315.398 L 454 462 689.250 462 L 924.500 462 924.280 432.364 C 924.160 416.064, 923.822 402.489, 923.530 402.197 C 922.697 401.364, 922.911 372, 923.750 372 C 924.163 372, 924.500 360.750, 924.500 347 C 924.500 333.250, 924.130 322, 923.677 322 C 923.224 322, 923.026 321.212, 923.237 320.250 C 923.448 319.288, 922.334 316.587, 920.762 314.250 C 918.141 310.353, 916.960 309.510, 914.676 309.906 C 914.222 309.985, 914.107 309.636, 914.419 309.131 C 914.731 308.625, 913.077 307.442, 910.744 306.502 C 906.299 304.711, 883.428 298.164, 878.835 297.369 C 875.894 296.859, 856.097 291.180, 837.500 285.511 C 816.834 279.211, 812.964 278.118, 809.219 277.522 C 807.217 277.204, 800.161 275.411, 793.539 273.538 C 767.590 266.197, 740.372 259.611, 729.796 258.113 C 720.423 256.786, 700.247 249.810, 687.450 243.472 C 681.373 240.463, 676.093 238, 675.718 238 C 675.342 238, 671.315 235.474, 666.767 232.386 C 662.220 229.299, 657.951 226.687, 657.279 226.582 C 656.607 226.477, 655.707 226.006, 655.279 225.535 C 654.851 225.065, 655.175 225.022, 656 225.441 C 656.825 225.860, 655.925 224.937, 654 223.388 C 652.075 221.840, 647.462 217.671, 643.750 214.123 C 640.038 210.575, 637 208.026, 637 208.458 C 637 208.891, 636.314 208.676, 635.476 207.980 C 634.638 207.284, 634.157 206.509, 634.409 206.258 C 634.969 205.698, 623.644 191.209, 620.656 188.663 C 619.470 187.653, 619.109 187.146, 619.854 187.536 C 620.777 188.020, 620.660 187.411, 619.489 185.623 C 617.840 183.106, 616.126 181.777, 617.595 184.155 C 618.041 184.876, 617.869 185.037, 617.138 184.585 C 616.494 184.187, 616.208 183.473, 616.502 182.997 C 617.398 181.547, 610.024 175.160, 604.093 172.247 L 598.500 169.500 526.250 169.148 L 454 168.796 454 315.398 M 455.494 574.363 C 455.092 587.212, 454.938 599.549, 455.150 601.779 C 455.363 604.008, 455.262 605.662, 454.926 605.454 C 454.182 604.994, 453 641.047, 453 664.220 C 453 673.514, 453.337 680.908, 453.750 680.651 C 454.163 680.395, 454.354 684.240, 454.176 689.197 C 453.998 694.154, 454.232 697.975, 454.695 697.689 C 455.158 697.402, 455.374 698.880, 455.174 700.973 C 454.642 706.547, 458.542 730.774, 462.102 744.015 C 463.801 750.332, 465.366 756.400, 465.582 757.500 C 466.696 763.188, 473.104 777.054, 474.282 776.326 C 474.847 775.976, 475.009 776.176, 474.642 776.771 C 473.728 778.250, 476.048 783.088, 477.301 782.314 C 477.872 781.961, 478.001 782.190, 477.599 782.841 C 476.870 784.019, 486.461 802.507, 490.131 807 C 491.255 808.375, 491.837 808.825, 491.426 808 C 490.987 807.117, 491.054 806.843, 491.590 807.333 C 492.090 807.792, 492.556 808.579, 492.625 809.083 C 492.694 809.587, 492.806 810.350, 492.875 810.777 C 492.944 811.205, 494.238 812.948, 495.750 814.652 C 500.452 819.948, 502 821.991, 502 822.901 C 502 824.254, 530.991 853, 532.355 853 C 533.017 853, 535.120 854.502, 537.029 856.338 C 542.304 861.412, 549.126 866.040, 550.279 865.327 C 550.873 864.961, 551.007 865.180, 550.595 865.845 C 549.948 866.894, 551.194 867.464, 553.324 867.094 C 553.778 867.015, 553.907 867.342, 553.611 867.820 C 552.639 869.393, 591.552 890.153, 598 891.501 C 598.825 891.673, 604.900 893.644, 611.500 895.880 C 651.035 909.274, 694.551 912.517, 733.964 905.007 C 745.102 902.885, 767.097 896.745, 773.698 893.915 C 776.155 892.862, 778.784 892, 779.539 892 C 781.459 892, 804.674 880.743, 809.388 877.526 C 811.527 876.067, 815.599 873.634, 818.436 872.119 C 825.091 868.568, 834.095 861.451, 833.197 860.453 C 832.813 860.027, 832.993 859.960, 833.595 860.303 C 834.788 860.982, 853.480 846.147, 852.573 845.240 C 851.795 844.462, 854.054 841.915, 855.002 842.501 C 855.428 842.764, 858.639 839.933, 862.138 836.209 C 870.011 827.829, 877.956 818.313, 876.168 819.406 C 875.435 819.854, 877.102 817.844, 879.871 814.940 C 882.641 812.036, 884.677 809.286, 884.395 808.830 C 884.113 808.373, 884.359 808, 884.941 808 C 885.523 808, 886 807.541, 886 806.980 C 886 806.419, 887.200 804.059, 888.667 801.736 C 890.133 799.413, 891.333 796.947, 891.333 796.256 C 891.333 795.565, 891.555 795.222, 891.827 795.494 C 892.718 796.385, 895.133 792.025, 894.403 790.844 C 893.989 790.172, 894.128 789.961, 894.738 790.338 C 895.650 790.901, 903.821 776.903, 903.852 774.723 C 903.859 774.296, 906.228 767.996, 909.118 760.723 C 912.008 753.450, 914.391 745.839, 914.414 743.809 C 914.436 741.779, 914.725 740.555, 915.055 741.089 C 916.859 744.008, 922.706 712.696, 923.568 695.500 C 924.878 669.379, 925.480 639.997, 924.705 639.999 C 924.268 639.999, 923.967 633.362, 924.036 625.250 C 924.105 617.138, 923.886 609.802, 923.550 608.948 C 923.213 608.094, 923.064 594.706, 923.219 579.197 L 923.500 550.999 689.862 550.999 L 456.224 551 455.494 574.363 M 847 957.933 C 845.625 958.352, 840.675 960.565, 836 962.851 C 812.048 974.565, 763.463 988.594, 740.500 990.428 C 736.100 990.780, 728.450 991.539, 723.500 992.117 C 711.615 993.502, 670.379 993.464, 656.500 992.054 C 650.450 991.440, 641.915 990.657, 637.534 990.315 L 629.567 989.693 685.710 1045.597 C 716.589 1076.343, 751.915 1111.463, 764.212 1123.640 L 786.572 1145.780 840.536 1093.362 C 870.216 1064.532, 894.388 1040.506, 894.250 1039.972 C 894.113 1039.437, 894.413 1039.113, 894.919 1039.250 C 895.424 1039.388, 906.722 1028.954, 920.026 1016.065 C 942.002 994.775, 944.051 992.510, 942.417 991.315 C 941.427 990.592, 940.037 990, 939.327 990 C 938.617 990, 929.816 985.695, 919.768 980.433 C 909.721 975.171, 900.433 970.653, 899.129 970.392 C 897.826 970.131, 894.226 968.612, 891.129 967.016 C 884.853 963.782, 876.791 960.497, 870 958.407 C 865.238 956.941, 851.207 956.652, 847 957.933" fill="url(#zds-logo-h-cn-vector-gradient)"/>
    <path fill-rule="evenodd" d="M 2909.995 261.750 C 2909.990 287.160, 2908.453 337.174, 2907.444 344.750 L 2906.877 349 2819.439 349 L 2732 349 2732 380 L 2732 411 2816.475 411 L 2900.950 411 2900.491 413.750 C 2896.471 437.858, 2893.684 448.737, 2887.360 465 C 2864.265 524.400, 2813.429 573.771, 2737.261 610.775 L 2724.021 617.207 2727.261 620.941 C 2729.042 622.995, 2735.737 630.338, 2742.138 637.260 C 2748.539 644.181, 2758.401 655.299, 2764.053 661.966 C 2770.759 669.876, 2774.823 673.898, 2775.748 673.543 C 2781.786 671.226, 2813.144 651.918, 2827.133 641.905 C 2883.444 601.596, 2920.993 554.210, 2941.564 497.500 C 2944.091 490.535, 2944.994 488.952, 2945.559 490.500 C 2950.485 503.992, 2962.423 528.834, 2971.092 543.633 C 2996.849 587.603, 3034.798 625.987, 3079 652.777 C 3094.940 662.438, 3112.906 671.512, 3113.908 670.408 C 3114.362 669.909, 3119.593 663.425, 3125.533 656 C 3131.472 648.575, 3142.445 635.383, 3149.916 626.684 C 3157.387 617.986, 3163.613 610.560, 3163.751 610.182 C 3163.889 609.803, 3160.964 608.435, 3157.251 607.141 C 3138.514 600.611, 3108.461 585.459, 3091.515 574 C 3040.549 539.537, 3005.021 491.068, 2985.227 429 C 2983.035 422.125, 2980.953 415.262, 2980.601 413.750 L 2979.962 411 3068.981 411 L 3158 411 3158 380 L 3158 349 3066.362 349 L 2974.724 349 2975.403 331.250 C 2976.656 298.502, 2977.956 255.584, 2977.978 246.250 L 2978 237 2944 237 L 2910 237 2909.995 261.750 M 3272.717 347.750 C 3272.262 460.254, 3271.994 468.829, 3267.887 502 C 3264.485 529.473, 3260.760 545.208, 3253.329 563.500 C 3244.871 584.320, 3231.174 606.336, 3215.069 625 C 3207.334 633.964, 3206.248 635.646, 3207.649 636.500 C 3217.749 642.653, 3243.717 660.446, 3251.904 666.823 C 3257.626 671.281, 3262.644 674.720, 3263.056 674.465 C 3263.467 674.211, 3266.929 669.390, 3270.747 663.752 C 3295.591 627.072, 3311.896 589.052, 3319.362 550.391 C 3327.727 507.080, 3329.962 459.289, 3329.985 323.250 L 3330 238 3301.580 238 L 3273.160 238 3272.717 347.750 M 2495 325 L 2495 409 2478 409 L 2461 409 2461 332 L 2461 255 2372.500 255 L 2284 255 2284 393.500 L 2284 532 2307.500 532 L 2331 532 2331 418.989 L 2331 305.978 2372.750 306.239 L 2414.500 306.500 2414.754 418.750 L 2415.009 531 2438.004 531 L 2461 531 2461 495 L 2461 459 2478 459 L 2495 459 2495 527.042 C 2495 585.159, 2494.770 596.200, 2493.420 602.733 C 2491.637 611.365, 2488.353 618.541, 2483.382 624.668 C 2481.522 626.961, 2480 629.112, 2480 629.448 C 2480 629.960, 2504.741 675.800, 2505.582 676.847 C 2505.736 677.039, 2511.405 674.058, 2518.181 670.224 C 2533.677 661.455, 2562.397 647.020, 2584.500 636.892 L 2601.500 629.102 2601.276 625.801 C 2601.153 623.985, 2600.592 616.200, 2600.030 608.500 C 2599.468 600.800, 2599.006 588.538, 2599.004 581.250 C 2599.002 573.962, 2598.730 568, 2598.401 568 C 2598.071 568, 2593.684 570.404, 2588.651 573.342 C 2570.954 583.674, 2554.057 593, 2553.034 593 C 2552.332 593, 2552 571.461, 2552 526 L 2552 459 2562 459 C 2571.586 459, 2572 459.090, 2572 461.164 C 2572 462.354, 2573.602 470.502, 2575.560 479.270 C 2591.679 551.443, 2621.711 607.668, 2664.971 646.661 C 2671.279 652.347, 2676.735 657, 2677.094 657 C 2677.454 657, 2681.262 651.487, 2685.558 644.750 C 2693 633.078, 2708.665 610.039, 2713.686 603.381 L 2716.038 600.261 2707.269 593.892 C 2696.630 586.164, 2678.088 568.396, 2669.292 557.500 C 2650.170 533.811, 2633.777 502.394, 2623.626 469.984 L 2620.186 459 2665.093 459 L 2710 459 2710 434 L 2710 409 2631 409 L 2552 409 2552 325 L 2552 241 2523.500 241 L 2495 241 2495 325 M 2649.971 261.733 C 2626.102 289.210, 2594.058 320.792, 2569 341.537 C 2552.535 355.167, 2553.345 352.560, 2562.584 362.207 C 2566.952 366.768, 2575.439 376.125, 2581.445 383 C 2587.451 389.875, 2592.649 395.622, 2592.996 395.771 C 2593.847 396.137, 2621.816 371.214, 2640.853 353.129 C 2664.866 330.315, 2705.572 286.734, 2704.495 284.992 C 2703.957 284.121, 2660.469 252.679, 2659.197 252.240 C 2658.782 252.098, 2654.631 256.369, 2649.971 261.733 M 3348 281.500 L 3348 309 3399 309 L 3450 309 3450 330.500 L 3450 352 3403 352 L 3356 352 3356 478.500 L 3356 605 3384.500 605 L 3413 605 3413 506 L 3413 407 3431.500 407 L 3450 407 3450 541 L 3450 675 3478.500 675 L 3507 675 3507.091 612.750 L 3507.182 550.500 3509.103 556.500 C 3511.768 564.828, 3517.501 587.726, 3519.579 598.341 C 3520.531 603.203, 3521.888 607.404, 3522.595 607.675 C 3524.811 608.525, 3559.160 606.026, 3566.476 604.482 C 3584.837 600.607, 3596.146 588.694, 3601.584 567.500 C 3603.244 561.031, 3603.407 552.595, 3603.733 456.250 L 3604.086 352 3555.543 352 L 3507 352 3507 330.500 L 3507 309 3561 309 L 3615 309 3615 281.500 L 3615 254 3481.500 254 L 3348 254 3348 281.500 M 3195 413 L 3195 556 3221 556 L 3247 556 3247 413 L 3247 270 3221 270 L 3195 270 3195 413 M 2350.996 397.750 C 2350.995 437.762, 2350.534 477.696, 2349.973 486.491 C 2348.206 514.187, 2342.386 536.585, 2331.334 558.223 C 2318.051 584.228, 2301.562 601.851, 2268.629 625.241 C 2266.875 626.486, 2267.411 627.483, 2277.129 641.049 C 2282.833 649.012, 2289.929 659.249, 2292.898 663.798 C 2295.867 668.346, 2298.639 671.940, 2299.057 671.784 C 2301.581 670.842, 2321.322 653.364, 2329.778 644.584 C 2346.960 626.746, 2359.184 609.553, 2369.975 588.050 L 2375.103 577.831 2385.294 590.666 C 2395.311 603.281, 2429.947 649.159, 2433.119 654.014 L 2434.739 656.492 2447.599 644.496 C 2454.673 637.898, 2464.176 628.900, 2468.717 624.500 L 2476.975 616.500 2456.141 593.500 C 2444.682 580.850, 2425.324 559.700, 2413.123 546.500 C 2391.498 523.104, 2390.954 522.412, 2391.509 519 C 2393.890 504.389, 2394.224 493.147, 2394.664 412.750 L 2395.144 325 2373.072 325 L 2351 325 2350.996 397.750 M 3507 476.887 L 3507 546.774 3513.750 548.086 C 3517.463 548.808, 3523.875 549.401, 3528 549.404 C 3537.784 549.411, 3542.534 547.237, 3545.105 541.576 C 3546.845 537.744, 3546.957 533.590, 3546.978 472.250 L 3547 407 3527 407 L 3507 407 3507 476.887 M 3443 1023 L 3443 1055 3437 1055 L 3431 1055 3431 1025.500 L 3431 996 3396.500 996 L 3362 996 3362 1049.500 L 3362 1103 3371.500 1103 L 3381 1103 3381 1059.500 L 3381 1016 3396.500 1016 L 3412 1016 3412 1059 L 3412 1102 3421.500 1102 L 3431 1102 3431 1088 L 3431 1074 3437.043 1074 L 3443.085 1074 3442.793 1103.418 C 3442.505 1132.378, 3442.464 1132.885, 3440.186 1135.965 C 3438.913 1137.685, 3438.013 1139.635, 3438.186 1140.297 C 3438.791 1142.615, 3447.408 1158.030, 3447.951 1157.766 C 3448.253 1157.620, 3456.637 1153.450, 3466.582 1148.500 L 3484.663 1139.500 3484.204 1128 C 3483.951 1121.675, 3483.619 1116.355, 3483.466 1116.177 C 3483.313 1116, 3479.561 1117.912, 3475.128 1120.427 C 3470.696 1122.942, 3466.829 1125, 3466.535 1125 C 3466.241 1125, 3466 1113.525, 3466 1099.500 L 3466 1074 3469.266 1074 L 3472.532 1074 3474.845 1083.750 C 3481.011 1109.743, 3492.886 1131.722, 3508.207 1145.497 C 3514.154 1150.843, 3512.952 1151.498, 3522.278 1137.842 L 3528.873 1128.184 3524.916 1125.442 C 3518.472 1120.976, 3508.399 1109.597, 3503.517 1101.269 C 3499.567 1094.530, 3494.794 1083.644, 3492.549 1076.250 L 3491.865 1074 3508.933 1074 L 3526 1074 3526 1064.500 L 3526 1055 3496 1055 L 3466 1055 3466 1023 L 3466 991 3454.500 991 L 3443 991 3443 1023 M 3168 997.622 C 3162.775 1000.696, 3158.349 1003.352, 3158.165 1003.524 C 3157.980 1003.696, 3160.037 1007.136, 3162.735 1011.169 C 3165.433 1015.201, 3170.045 1022.550, 3172.984 1027.500 C 3175.923 1032.450, 3178.455 1036.664, 3178.611 1036.864 C 3178.838 1037.155, 3199.365 1024.734, 3200.918 1023.365 C 3201.613 1022.753, 3179.212 991.986, 3178.094 992.016 C 3177.767 992.025, 3173.225 994.548, 3168 997.622 M 3492.500 1009.419 C 3484.800 1017.298, 3475.832 1026.006, 3472.571 1028.770 L 3466.642 1033.797 3473.571 1041.824 C 3477.382 1046.239, 3480.847 1049.885, 3481.270 1049.926 C 3483.372 1050.129, 3524 1010.404, 3524 1008.146 C 3524 1007.280, 3507.805 994.915, 3506.844 995.047 C 3506.655 995.073, 3500.200 1001.541, 3492.500 1009.419 M 2695.218 1007.750 L 2695.500 1019.500 2764.500 1019.500 L 2833.500 1019.500 2833.782 1007.750 L 2834.063 996 2764.500 996 L 2694.937 996 2695.218 1007.750 M 3211 1011 L 3211 1022 3245.500 1022 L 3280 1022 3280 1038 L 3280 1054 3246.929 1054 L 3213.857 1054 3214.234 1093.750 C 3214.566 1128.735, 3214.823 1134.062, 3216.379 1138.191 C 3218.874 1144.807, 3225.290 1150.467, 3231.903 1151.886 C 3238.919 1153.390, 3284.914 1153.352, 3292.467 1151.835 C 3300.217 1150.279, 3306.785 1145.736, 3309.790 1139.854 C 3311.687 1136.140, 3317.999 1109.658, 3317.977 1105.500 C 3317.973 1104.687, 3310.445 1102.125, 3293.938 1097.320 C 3292.643 1096.943, 3292.168 1098.652, 3291.163 1107.300 C 3288.555 1129.732, 3287.905 1130.362, 3266.835 1130.844 C 3249.350 1131.244, 3245.642 1130.733, 3242.388 1127.479 C 3240 1125.091, 3240 1125.088, 3240 1100.545 L 3240 1076 3272.500 1076 L 3305 1076 3305 1038 L 3305 1000 3258 1000 L 3211 1000 3211 1011 M 2284.317 1008.503 C 2280.917 1009.242, 2276.079 1010.756, 2273.567 1011.867 L 2269 1013.888 2269 1025.527 C 2269 1031.929, 2269.338 1036.996, 2269.750 1036.788 C 2283.020 1030.096, 2284.581 1029.588, 2293.114 1029.180 C 2298.184 1028.938, 2303.224 1029.249, 2305.294 1029.932 C 2315.641 1033.347, 2319.192 1047.156, 2311.868 1055.497 C 2307.892 1060.026, 2301.574 1061.996, 2288.750 1062.705 L 2278 1063.300 2278 1074.049 L 2278 1084.799 2290.750 1085.150 C 2302.556 1085.474, 2303.943 1085.722, 2309.490 1088.500 C 2316.799 1092.161, 2319.429 1096.128, 2319.429 1103.495 C 2319.429 1110.604, 2316.406 1115.165, 2309.432 1118.577 C 2304.253 1121.111, 2303.381 1121.225, 2292.734 1120.769 C 2281.117 1120.271, 2274.095 1118.340, 2267.927 1113.948 C 2266.422 1112.877, 2264.923 1112, 2264.596 1112 C 2264.268 1112, 2264 1117.593, 2264 1124.428 L 2264 1136.856 2269.306 1138.842 C 2277.245 1141.812, 2285.184 1143.002, 2296.934 1142.983 C 2310.292 1142.961, 2319.129 1141.092, 2328.052 1136.403 C 2340.932 1129.635, 2347.041 1120.139, 2347.791 1105.722 C 2348.222 1097.430, 2348.072 1096.589, 2345.079 1090.508 C 2340.554 1081.318, 2333.766 1076.175, 2322.500 1073.401 C 2319.750 1072.724, 2318.175 1072.131, 2319 1072.084 C 2319.825 1072.037, 2323.218 1070.712, 2326.540 1069.141 C 2334.094 1065.567, 2340.441 1058.623, 2342.505 1051.672 C 2344.480 1045.019, 2344.403 1034.539, 2342.333 1028.463 C 2339.177 1019.201, 2327.978 1010.802, 2315.201 1008.115 C 2308.146 1006.631, 2291.996 1006.834, 2284.317 1008.503 M 2446.348 1008.364 C 2424.287 1013.953, 2408.303 1033.978, 2403.409 1062.161 C 2401.385 1073.810, 2401.926 1097.428, 2404.423 1106.427 C 2408.880 1122.496, 2418.911 1135.439, 2430.500 1140.075 C 2435.705 1142.158, 2438.156 1142.477, 2449 1142.488 C 2460.972 1142.499, 2461.782 1142.366, 2468.180 1139.335 C 2484.941 1131.395, 2494 1116.541, 2494 1097 C 2494 1081.880, 2488.641 1069.450, 2479.081 1062.392 C 2473.113 1057.987, 2466.360 1056, 2457.356 1056 C 2447.511 1056, 2440.440 1058.727, 2433.987 1065.013 L 2428.997 1069.873 2429.569 1065.687 C 2431.950 1048.253, 2437.329 1038.408, 2447.838 1032.249 C 2451.659 1030.010, 2453.872 1029.511, 2461.451 1029.185 C 2470.177 1028.809, 2474.514 1029.658, 2483.250 1033.454 C 2484.862 1034.154, 2485 1033.263, 2485 1022.154 L 2485 1010.094 2481.250 1008.934 C 2475.585 1007.182, 2452.502 1006.805, 2446.348 1008.364 M 2578.618 1008.112 C 2572.094 1009.644, 2563.142 1015.064, 2558.197 1020.476 C 2552.331 1026.898, 2547.603 1036.484, 2544.731 1047.784 C 2542.786 1055.432, 2542.517 1059.074, 2542.531 1077.500 C 2542.549 1101.060, 2543.516 1106.827, 2549.601 1119.670 C 2557.549 1136.445, 2571.059 1143.794, 2592.084 1142.782 C 2600.609 1142.371, 2602.813 1141.874, 2608.479 1139.085 C 2620.923 1132.959, 2629.473 1121.089, 2634.111 1103.500 C 2636.802 1093.296, 2637.851 1066.249, 2636.038 1053.848 C 2631.422 1022.277, 2616.614 1006.811, 2591.282 1007.100 C 2586.452 1007.156, 2580.753 1007.611, 2578.618 1008.112 M 2910.587 1073.772 C 2897.435 1109.372, 2886.475 1139.063, 2886.230 1139.750 C 2885.887 1140.716, 2889.334 1141, 2901.375 1141 L 2916.965 1141 2921.703 1125.983 L 2926.441 1110.965 2950.441 1111.233 L 2974.441 1111.500 2979.067 1126 L 2983.694 1140.500 2999.464 1140.776 C 3011.909 1140.994, 3015.140 1140.783, 3014.788 1139.776 C 3014.542 1139.074, 3004.027 1109.373, 2991.421 1073.773 L 2968.500 1009.045 2951.500 1009.045 L 2934.500 1009.044 2910.587 1073.772 M 3067 1075 L 3067 1141 3081 1141 L 3095 1141 3095 1075 L 3095 1009 3081 1009 L 3067 1009 3067 1075 M 3387.735 1058.250 C 3387.273 1096.804, 3386.978 1099.086, 3380.827 1111.660 C 3376.469 1120.570, 3368.282 1129.619, 3357.632 1137.298 C 3355.867 1138.571, 3356.085 1139.116, 3361.632 1147.279 C 3364.860 1152.027, 3367.836 1155.932, 3368.247 1155.956 C 3368.658 1155.980, 3372.426 1152.739, 3376.622 1148.754 C 3384.748 1141.035, 3391.379 1132.433, 3395.052 1124.846 L 3397.305 1120.192 3401.474 1125.346 C 3403.767 1128.181, 3408.928 1134.888, 3412.943 1140.250 C 3416.958 1145.612, 3420.466 1150, 3420.737 1150 C 3421.008 1150, 3424.769 1146.556, 3429.095 1142.346 L 3436.961 1134.691 3427.297 1124.096 C 3421.982 1118.268, 3414.733 1110.505, 3411.187 1106.844 L 3404.740 1100.188 3404.929 1061.594 L 3405.117 1023 3396.637 1023 L 3388.157 1023 3387.735 1058.250 M 2582.365 1030.919 C 2580.495 1032.060, 2578.172 1034.993, 2576.608 1038.189 C 2572.239 1047.119, 2570.732 1056.578, 2570.663 1075.500 C 2570.575 1099.591, 2573.607 1112.126, 2581.033 1118.374 C 2583.580 1120.517, 2585.172 1121, 2589.694 1121 C 2594.770 1121, 2595.552 1120.683, 2599.007 1117.228 C 2603.908 1112.327, 2606.637 1103.585, 2608.079 1088.164 C 2609.805 1069.705, 2607.468 1046.757, 2602.962 1037.926 C 2599.937 1031.997, 2595.641 1028.999, 2590.173 1029.004 C 2587.338 1029.006, 2584.267 1029.759, 2582.365 1030.919 M 2949.666 1035.689 C 2949.154 1038.887, 2936.068 1080.447, 2933.306 1087.645 C 2932.881 1088.753, 2935.910 1089, 2949.893 1089 C 2959.302 1089, 2967 1088.715, 2967 1088.367 C 2967 1088.019, 2963.806 1077.818, 2959.903 1065.697 C 2955.999 1053.577, 2952.248 1040.931, 2951.568 1037.595 L 2950.331 1031.530 2949.666 1035.689 M 2681 1058 L 2681 1070 2702.115 1070 L 2723.230 1070 2722.527 1075.627 C 2721.368 1084.909, 2719.207 1092.034, 2714.834 1101 C 2709.525 1111.886, 2699.184 1122.571, 2687.282 1129.470 L 2679.064 1134.233 2688.234 1144.146 C 2694.523 1150.946, 2697.890 1153.878, 2698.952 1153.481 C 2707.391 1150.330, 2724.453 1135.641, 2731.179 1125.737 C 2739.473 1113.523, 2744.931 1097.874, 2747.080 1080.147 L 2748.309 1070 2760.155 1070 L 2772 1070 2772 1100.822 C 2772 1135.452, 2772.459 1138.436, 2778.723 1144.520 C 2784.602 1150.229, 2789.428 1151.210, 2809.752 1150.830 C 2824.734 1150.550, 2828.045 1150.207, 2831 1148.632 C 2835.899 1146.020, 2838.882 1143.110, 2841.107 1138.771 C 2843.082 1134.919, 2849 1112.177, 2849 1108.438 C 2849 1106.653, 2847.202 1105.670, 2837.404 1102.093 C 2831.026 1099.764, 2825.639 1098.027, 2825.434 1098.232 C 2825.229 1098.438, 2824.381 1103.131, 2823.551 1108.663 C 2820.772 1127.166, 2819.140 1129.371, 2808.706 1128.725 C 2804.019 1128.435, 2802.394 1127.849, 2800.206 1125.662 L 2797.500 1122.958 2797.189 1096.479 L 2796.879 1070 2822.439 1070 L 2848 1070 2848 1058 L 2848 1046 2764.500 1046 L 2681 1046 2681 1058 M 3148 1059.500 L 3148 1071 3156.553 1071 L 3165.105 1071 3164.803 1102.250 C 3164.538 1129.552, 3164.281 1133.926, 3162.766 1136.871 C 3161.812 1138.726, 3161.336 1140.751, 3161.707 1141.371 C 3162.968 1143.482, 3173.241 1157, 3173.583 1157 C 3173.771 1157, 3176.751 1154.478, 3180.206 1151.395 C 3184.868 1147.236, 3205.800 1130.950, 3209.898 1128.295 C 3210.296 1128.037, 3206.923 1102.816, 3206.401 1102.146 C 3206.250 1101.952, 3202.273 1104.802, 3197.563 1108.479 L 3189 1115.166 3189 1081.583 L 3189 1048 3168.500 1048 L 3148 1048 3148 1059.500 M 2440.223 1079.119 C 2433.764 1082.316, 2430.556 1088.422, 2430.556 1097.516 C 2430.556 1103.369, 2431.071 1105.631, 2433.528 1110.549 C 2437.411 1118.324, 2441.351 1121, 2448.916 1121 C 2459.975 1121, 2466.264 1113.066, 2466.357 1099 C 2466.384 1094.875, 2465.854 1089.887, 2465.180 1087.915 C 2461.888 1078.289, 2450.212 1074.174, 2440.223 1079.119" fill="#2D2929"/>
  </g>
</svg>
