<?xml version="1.0" encoding="UTF-8"?>
<svg xmlns="http://www.w3.org/2000/svg" width="3537" height="1500" viewBox="0 0 3537 1500" role="img" aria-labelledby="title-zds-logo-h-hk-vector">
  <title id="title-zds-logo-h-hk-vector">账大师 繁体版 360元AI記帳 Logo</title>
  <defs>
    <linearGradient id="zds-logo-h-hk-vector-gradient" x1="24" y1="24" x2="1191" y2="1475" gradientUnits="userSpaceOnUse">
      <stop offset="0" stop-color="#075BFF"/>
      <stop offset="0.55" stop-color="#008BFF"/>
      <stop offset="1" stop-color="#12D1DF"/>
    </linearGradient>
  </defs>
  <g transform="translate(-87 -58)">
    <path fill-rule="evenodd" d="M 375.500 83.190 C 372.803 84.713, 367.672 89, 368.546 89 C 368.930 89, 368.724 89.628, 368.087 90.395 C 367.451 91.162, 366.999 92.174, 367.083 92.645 C 367.168 93.115, 367.184 165.838, 367.118 254.250 L 367 415 299 415 C 261.600 415, 231 414.887, 231 414.750 C 231 414.613, 230.290 410.900, 229.423 406.500 C 228.555 402.100, 227.864 396.604, 227.886 394.286 C 227.908 391.968, 227.485 389.800, 226.946 389.467 C 226.408 389.134, 226.238 388.424, 226.568 387.889 C 227.603 386.215, 223.187 373.629, 220.592 370.857 C 219.232 369.404, 218.429 367.904, 218.809 367.524 C 219.189 367.144, 219.050 366.964, 218.500 367.123 C 217.950 367.283, 215.134 366.608, 212.242 365.624 C 205.930 363.475, 199.741 363.282, 173.500 364.414 C 160.010 364.996, 152.608 365.727, 150.760 366.659 C 149.253 367.419, 147.057 369.927, 145.881 372.233 C 143.764 376.383, 143.744 376.996, 143.917 433.462 C 144.077 486.251, 144.225 490.761, 145.893 494 C 146.884 495.925, 149.226 498.400, 151.098 499.500 C 154.434 501.461, 156.567 501.506, 260.399 501.785 L 366.298 502.070 365.601 563.285 C 365.153 602.653, 365.295 634.493, 366 652.500 C 366.602 667.900, 367.085 684.049, 367.072 688.386 C 367.060 692.723, 367.281 696.646, 367.563 697.102 C 367.845 697.559, 368.256 701.435, 368.476 705.716 C 369.011 716.136, 372.554 739.873, 375.654 753.808 C 377.037 760.028, 377.882 765.864, 377.532 766.778 C 377.181 767.691, 377.224 768.109, 377.628 767.705 C 378.031 767.302, 378.909 768.666, 379.579 770.736 C 383.902 784.097, 387.330 795.608, 387.178 796.250 C 387.080 796.662, 387.477 797, 388.059 797 C 388.641 797, 388.841 797.449, 388.502 797.997 C 388.163 798.545, 390.229 803.833, 393.093 809.747 C 395.957 815.661, 398.308 821.043, 398.317 821.706 C 398.326 822.369, 398.639 822.723, 399.013 822.492 C 399.386 822.261, 400.738 824.306, 402.017 827.036 C 403.296 829.766, 404.685 832, 405.104 832 C 405.923 832, 407.525 836.014, 407.198 837.250 C 407.089 837.663, 407.450 838, 408 838 C 408.550 838, 409 838.643, 409 839.429 C 409 840.214, 409.616 841.473, 410.368 842.225 C 411.121 842.978, 412.051 844.585, 412.435 845.797 C 412.820 847.008, 413.554 848, 414.067 848 C 414.580 848, 415 848.675, 415 849.500 C 415 850.325, 415.420 851, 415.933 851 C 416.912 851, 418.556 854.908, 418.173 856.324 C 418.051 856.778, 418.412 856.864, 418.975 856.515 C 419.912 855.936, 420.448 857.282, 420.094 859.324 C 420.015 859.778, 420.299 859.935, 420.725 859.675 C 421.606 859.135, 434.333 879.751, 434.333 881.717 C 434.333 882.423, 434.555 882.778, 434.827 882.506 C 435.741 881.592, 438.123 885.990, 437.398 887.252 C 437.003 887.938, 437.054 888.160, 437.511 887.745 C 437.969 887.330, 439.837 889.090, 441.662 891.657 C 444.719 895.957, 444.843 896.417, 443.240 897.487 C 438.982 900.328, 423.600 908.103, 413.921 912.306 C 408.103 914.833, 396.542 920.297, 388.231 924.450 C 379.919 928.602, 372.629 932, 372.030 932 C 371.431 932, 364.316 935.308, 356.220 939.350 C 348.124 943.393, 336.775 948.759, 331 951.274 C 325.225 953.789, 315.100 958.530, 308.500 961.810 C 301.900 965.089, 292.675 969.355, 288 971.290 C 275.796 976.340, 235.958 996.413, 233 999.002 C 229.552 1002.021, 225.411 1004.062, 224.466 1003.210 C 224.034 1002.820, 224.003 1003.063, 224.399 1003.750 C 225.056 1004.892, 223.873 1005.475, 221.676 1005.094 C 221.222 1005.015, 221.076 1005.314, 221.350 1005.758 C 221.625 1006.202, 220.196 1007.656, 218.175 1008.990 C 216.154 1010.323, 211.637 1013.619, 208.138 1016.312 C 204.639 1019.006, 201.147 1021.302, 200.378 1021.415 C 199.609 1021.528, 198.422 1022.246, 197.740 1023.012 C 196.703 1024.176, 196.827 1024.173, 198.500 1022.997 C 199.600 1022.224, 196.034 1025.845, 190.575 1031.045 C 185.116 1036.245, 180.301 1040.500, 179.875 1040.500 C 179.449 1040.500, 178.538 1041.063, 177.850 1041.750 C 177.162 1042.438, 176.936 1043, 177.347 1043 C 178.155 1043, 167.113 1056.223, 163.569 1059.500 C 162.379 1060.600, 162.081 1061.050, 162.906 1060.500 C 163.867 1059.860, 163.703 1060.453, 162.453 1062.147 C 161.379 1063.603, 160.151 1064.582, 159.725 1064.323 C 159.299 1064.063, 159.065 1064.222, 159.205 1064.676 C 159.543 1065.772, 155.784 1072, 154.784 1072 C 154.353 1072, 154 1072.675, 154 1073.500 C 154 1074.325, 153.550 1075, 153 1075 C 152.450 1075, 152 1075.675, 152 1076.500 C 152 1077.325, 151.523 1078, 150.941 1078 C 150.359 1078, 150.162 1078.453, 150.504 1079.007 C 150.847 1079.561, 150.498 1080.255, 149.730 1080.550 C 148.962 1080.845, 148.322 1081.629, 148.308 1082.293 C 148.270 1084.049, 140.925 1096, 139.883 1096 C 139.397 1096, 139.053 1096.338, 139.118 1096.750 C 139.432 1098.735, 138.901 1100.057, 138.011 1099.507 C 137.460 1099.166, 137.268 1099.536, 137.578 1100.342 C 137.883 1101.137, 136.526 1104.977, 134.563 1108.876 C 132.599 1112.774, 130.803 1116.985, 130.571 1118.232 C 130.339 1119.479, 130.059 1120.612, 129.949 1120.750 C 129.840 1120.888, 129.687 1121.338, 129.610 1121.750 C 129.533 1122.162, 129.112 1123.063, 128.676 1123.750 C 128.239 1124.438, 128.145 1125, 128.467 1125 C 128.788 1125, 128.419 1126.238, 127.647 1127.750 C 125.621 1131.718, 119.435 1153.823, 117.084 1165.500 C 111.314 1194.150, 111.500 1188.865, 111.500 1324 C 111.500 1462.789, 111.250 1457.384, 117.968 1463.968 C 124.559 1470.429, 130.126 1471.410, 160.500 1471.458 C 190.032 1471.506, 193.869 1470.811, 197.535 1464.750 C 199.449 1461.585, 199.517 1458.437, 200.146 1344 C 200.789 1227.194, 201.372 1206.596, 204.555 1188.347 C 205.368 1183.681, 205.775 1179.445, 205.458 1178.932 C 205.141 1178.419, 205.411 1178, 206.058 1178 C 206.772 1178, 207.046 1177.020, 206.755 1175.500 C 206.492 1174.125, 206.665 1173, 207.139 1173 C 207.612 1173, 208 1171.673, 208 1170.052 C 208 1162.781, 218.295 1137.669, 227.494 1122.500 C 230.638 1117.316, 234.881 1111.716, 232.492 1115.905 C 231.951 1116.853, 232.071 1117.074, 232.862 1116.585 C 233.506 1116.187, 233.789 1115.468, 233.491 1114.986 C 232.948 1114.108, 242.128 1102.971, 247.757 1097.679 C 249.407 1096.128, 251.599 1094.718, 252.628 1094.547 C 253.658 1094.375, 254.391 1093.741, 254.257 1093.138 C 254.123 1092.535, 257.948 1089.400, 262.757 1086.170 C 273.366 1079.045, 277.494 1076.852, 278.534 1077.790 C 278.966 1078.180, 279.017 1077.970, 278.646 1077.322 C 278.256 1076.641, 278.789 1075.884, 279.910 1075.529 C 280.976 1075.190, 283.539 1073.766, 285.605 1072.364 C 287.670 1070.963, 290.135 1069.667, 291.082 1069.484 C 293.256 1069.066, 299.026 1066.160, 301 1064.490 C 303.473 1062.397, 408.922 1010, 410.661 1010 C 411.227 1010, 420.198 1005.690, 430.596 1000.423 C 440.993 995.156, 450.400 990.663, 451.500 990.439 C 452.600 990.215, 460.885 986.286, 469.912 981.707 L 486.323 973.382 517.912 1005.327 C 535.285 1022.897, 564.700 1052.534, 583.278 1071.187 C 604.270 1092.263, 616.795 1105.555, 616.368 1106.300 C 615.989 1106.960, 616.030 1107.184, 616.457 1106.799 C 617.665 1105.710, 692.227 1180.808, 691.388 1182.268 C 690.998 1182.945, 691.036 1183.178, 691.473 1182.783 C 691.909 1182.389, 698.179 1188.014, 705.406 1195.283 L 718.545 1208.500 664.522 1262.787 C 634.810 1292.644, 586.875 1340.794, 558 1369.787 L 505.500 1422.500 505.177 1358 C 504.769 1276.720, 504.016 1257.720, 500.876 1249.500 C 499.615 1246.200, 498.688 1243.129, 498.817 1242.676 C 498.945 1242.222, 498.701 1242.052, 498.275 1242.298 C 497.849 1242.543, 496.600 1241.833, 495.500 1240.718 C 494.400 1239.604, 494.175 1239.059, 495 1239.507 C 495.826 1239.955, 496.150 1239.936, 495.721 1239.465 C 495.293 1238.994, 494.393 1238.528, 493.721 1238.429 C 493.049 1238.331, 490.250 1237.442, 487.500 1236.455 C 483.415 1234.989, 478.306 1234.580, 459.587 1234.221 C 436.038 1233.769, 431.416 1234.263, 426 1237.810 C 424.625 1238.711, 423.163 1239.460, 422.750 1239.474 C 422.337 1239.488, 421.980 1239.829, 421.957 1240.232 C 421.933 1240.634, 421.145 1242.659, 420.207 1244.732 C 418.688 1248.084, 418.445 1254.371, 418 1301.655 C 417.725 1330.890, 417.837 1354.601, 418.250 1354.346 C 418.662 1354.091, 419 1366.760, 419 1382.500 C 419 1398.240, 418.663 1410.911, 418.250 1410.657 C 417.593 1410.253, 417.591 1514.228, 418.248 1521.167 C 418.386 1522.633, 418.748 1523.758, 419.052 1523.667 C 419.355 1523.575, 421.032 1525.122, 422.778 1527.105 C 429.396 1534.621, 416.671 1534.117, 589.128 1533.684 C 674.032 1533.470, 744.874 1532.966, 746.554 1532.563 L 749.609 1531.830 749.554 1495.665 C 749.503 1461.277, 749.401 1459.328, 747.483 1456 C 746.197 1453.768, 743.665 1451.604, 740.495 1450.029 L 735.523 1447.558 674.511 1447.848 L 613.500 1448.139 620.926 1440.619 C 625.010 1436.483, 628.657 1433.288, 629.030 1433.519 C 629.404 1433.750, 630.753 1432.827, 632.029 1431.469 C 633.305 1430.111, 633.943 1429, 633.448 1429 C 632.952 1429, 636.103 1425.423, 640.450 1421.050 C 644.797 1416.678, 648.658 1413.289, 649.031 1413.519 C 649.404 1413.750, 650.753 1412.827, 652.029 1411.469 C 653.305 1410.111, 653.944 1409, 653.449 1409 C 652.955 1409, 655.880 1405.647, 659.951 1401.550 C 664.021 1397.452, 667.654 1394.286, 668.023 1394.514 C 668.392 1394.742, 669.972 1393.595, 671.534 1391.964 C 673.096 1390.334, 673.964 1389, 673.462 1389 C 672.960 1389, 675.880 1385.647, 679.951 1381.550 C 684.021 1377.452, 687.657 1374.288, 688.030 1374.519 C 688.404 1374.750, 689.753 1373.827, 691.029 1372.469 C 692.305 1371.111, 692.943 1370, 692.448 1370 C 691.952 1370, 695.103 1366.423, 699.450 1362.050 C 703.797 1357.678, 707.658 1354.289, 708.031 1354.519 C 708.404 1354.750, 709.753 1353.827, 711.029 1352.469 C 712.305 1351.111, 712.944 1350, 712.449 1350 C 711.955 1350, 714.880 1346.647, 718.951 1342.550 C 723.021 1338.452, 726.654 1335.286, 727.023 1335.514 C 727.392 1335.742, 728.972 1334.595, 730.534 1332.964 C 732.096 1331.334, 732.964 1330, 732.462 1330 C 731.960 1330, 734.880 1326.647, 738.951 1322.550 C 743.021 1318.452, 746.657 1315.288, 747.030 1315.519 C 747.404 1315.750, 748.787 1314.715, 750.105 1313.219 L 752.500 1310.500 749.500 1312.995 C 747.850 1314.368, 751.196 1310.993, 756.935 1305.495 C 762.675 1299.998, 767.677 1295.593, 768.053 1295.706 C 768.428 1295.819, 769.773 1294.806, 771.042 1293.456 C 772.310 1292.105, 772.943 1291, 772.448 1291 C 771.952 1291, 775.103 1287.423, 779.450 1283.050 C 783.797 1278.678, 787.658 1275.289, 788.031 1275.519 C 788.404 1275.750, 789.753 1274.827, 791.029 1273.469 C 792.305 1272.111, 792.944 1271, 792.449 1271 C 791.955 1271, 794.880 1267.647, 798.951 1263.550 C 803.021 1259.452, 806.654 1256.286, 807.023 1256.514 C 807.392 1256.742, 808.972 1255.595, 810.534 1253.964 C 812.096 1252.334, 812.964 1251, 812.462 1251 C 811.960 1251, 814.880 1247.647, 818.951 1243.550 C 823.021 1239.452, 826.654 1236.286, 827.023 1236.514 C 827.392 1236.742, 828.972 1235.595, 830.534 1233.964 C 832.096 1232.334, 832.964 1231, 832.462 1231 C 831.960 1231, 834.880 1227.647, 838.951 1223.550 C 843.021 1219.452, 846.654 1216.286, 847.023 1216.514 C 847.392 1216.742, 849 1215.482, 850.597 1213.714 L 853.500 1210.500 850.460 1213 C 848.788 1214.375, 851.713 1211.387, 856.960 1206.361 C 862.207 1201.335, 866.769 1197.381, 867.097 1197.575 C 867.425 1197.770, 868.972 1196.595, 870.534 1194.964 C 872.096 1193.334, 872.964 1192, 872.462 1192 C 871.960 1192, 874.880 1188.647, 878.951 1184.550 C 883.021 1180.452, 886.657 1177.288, 887.030 1177.519 C 887.404 1177.750, 888.753 1176.827, 890.029 1175.469 C 891.305 1174.111, 891.943 1173, 891.448 1173 C 890.952 1173, 894.103 1169.423, 898.450 1165.050 C 902.797 1160.678, 906.658 1157.289, 907.031 1157.519 C 907.404 1157.750, 908.753 1156.827, 910.029 1155.469 C 911.305 1154.111, 911.944 1153, 911.449 1153 C 910.955 1153, 913.880 1149.647, 917.951 1145.550 C 922.021 1141.452, 925.654 1138.286, 926.023 1138.514 C 926.874 1139.040, 932.206 1133.540, 931.515 1132.848 C 930.939 1132.272, 945.673 1118.759, 946.384 1119.211 C 947.118 1119.678, 951.979 1114.775, 951.519 1114.031 C 951.289 1113.658, 954.678 1109.797, 959.050 1105.450 C 963.423 1101.103, 967 1097.952, 967 1098.448 C 967 1098.943, 968.111 1098.305, 969.469 1097.029 C 970.827 1095.753, 971.750 1094.404, 971.519 1094.031 C 971.289 1093.658, 974.678 1089.797, 979.050 1085.450 C 983.423 1081.103, 987 1077.952, 987 1078.448 C 987 1078.943, 988.111 1078.305, 989.469 1077.029 C 990.827 1075.753, 991.736 1074.382, 991.489 1073.982 C 991.012 1073.210, 1005.115 1060.257, 1005.790 1060.848 C 1006.463 1061.437, 1011.958 1055.741, 1011.473 1054.956 C 1009.917 1052.439, 1028.444 1040.979, 1034 1041.020 C 1035.375 1041.031, 1041.220 1043.055, 1046.989 1045.520 C 1052.758 1047.984, 1057.998 1050, 1058.634 1050 C 1060 1050, 1076.965 1058.283, 1089 1064.825 C 1093.675 1067.367, 1097.998 1069.522, 1098.608 1069.614 C 1100.637 1069.921, 1107.944 1075.723, 1107.216 1076.450 C 1106.822 1076.844, 1106.950 1077.076, 1107.500 1076.965 C 1109.641 1076.533, 1111.089 1077.047, 1110.485 1078.025 C 1110.136 1078.588, 1110.222 1078.985, 1110.676 1078.906 C 1112.806 1078.536, 1114.052 1079.106, 1113.405 1080.155 C 1112.994 1080.819, 1113.127 1081.039, 1113.719 1080.674 C 1114.950 1079.913, 1132.274 1092.748, 1131.565 1093.895 C 1131.293 1094.335, 1132.405 1095.972, 1134.036 1097.534 C 1135.666 1099.096, 1137 1099.971, 1137 1099.479 C 1137 1098.986, 1139.046 1100.590, 1141.546 1103.042 C 1146.670 1108.067, 1156.254 1120.038, 1153.922 1118.500 C 1153.088 1117.950, 1153.362 1118.400, 1154.530 1119.500 C 1157.785 1122.564, 1160.226 1126.460, 1166.960 1139.334 C 1170.364 1145.843, 1172.896 1151.829, 1172.586 1152.636 C 1172.270 1153.460, 1172.457 1153.836, 1173.011 1153.493 C 1173.555 1153.157, 1174 1153.063, 1174 1153.285 C 1174 1153.506, 1175.582 1158.287, 1177.517 1163.909 C 1179.451 1169.530, 1181.106 1175.338, 1181.195 1176.815 C 1181.284 1178.292, 1181.593 1179.942, 1181.881 1180.482 C 1182.169 1181.023, 1182.478 1182.148, 1182.567 1182.982 C 1182.655 1183.817, 1183.665 1190.575, 1184.811 1198 C 1185.957 1205.425, 1187.201 1215.831, 1187.575 1221.124 C 1187.949 1226.417, 1188.329 1279.517, 1188.419 1339.124 C 1188.565 1435.848, 1188.757 1448.142, 1190.212 1453.474 C 1191.108 1456.759, 1191.583 1459.866, 1191.266 1460.378 C 1190.933 1460.918, 1191.248 1460.965, 1192.015 1460.490 C 1192.985 1459.891, 1193.164 1460.132, 1192.681 1461.388 C 1192.290 1462.407, 1192.424 1462.856, 1193.011 1462.493 C 1193.555 1462.157, 1194 1462.320, 1194 1462.855 C 1194 1464.824, 1204.007 1469.915, 1210.170 1471.082 C 1219.168 1472.785, 1259.187 1472.808, 1264.976 1471.112 C 1270.316 1469.548, 1275.495 1464.439, 1277.041 1459.208 C 1277.819 1456.577, 1278.028 1419.918, 1277.761 1333 C 1277.353 1199.575, 1277.393 1200.603, 1271.402 1171.236 C 1270.025 1164.490, 1269.217 1158.458, 1269.604 1157.831 C 1270.066 1157.084, 1269.861 1156.968, 1269.010 1157.494 C 1268.028 1158.101, 1267.836 1157.640, 1268.223 1155.614 C 1268.505 1154.138, 1268.490 1153.176, 1268.190 1153.477 C 1267.890 1153.777, 1265.321 1146.418, 1262.481 1137.124 C 1259.642 1127.829, 1255.437 1116.321, 1253.138 1111.551 C 1250.839 1106.780, 1249.262 1102.385, 1249.634 1101.784 C 1250.069 1101.079, 1249.839 1100.981, 1248.985 1101.510 C 1248.015 1102.109, 1247.836 1101.868, 1248.319 1100.612 C 1248.710 1099.593, 1248.576 1099.144, 1247.989 1099.507 C 1247.445 1099.843, 1247 1099.711, 1247 1099.214 C 1247 1098.717, 1245.235 1095.580, 1243.079 1092.243 C 1240.922 1088.906, 1239.422 1085.911, 1239.745 1085.588 C 1240.069 1085.265, 1239.782 1085, 1239.108 1085 C 1238.434 1085, 1238.160 1084.550, 1238.500 1084 C 1238.840 1083.450, 1238.641 1083, 1238.059 1083 C 1237.477 1083, 1237 1082.325, 1237 1081.500 C 1237 1080.675, 1236.660 1080, 1236.244 1080 C 1235.828 1080, 1234.934 1078.763, 1234.257 1077.250 C 1233.580 1075.737, 1231.697 1072.952, 1230.071 1071.061 C 1228.446 1069.169, 1227.385 1067.187, 1227.713 1066.656 C 1228.041 1066.125, 1227.789 1066.012, 1227.155 1066.405 C 1226.520 1066.797, 1225.944 1066.641, 1225.875 1066.059 C 1225.806 1065.477, 1225.694 1064.588, 1225.625 1064.083 C 1225.556 1063.579, 1225.090 1062.792, 1224.590 1062.333 C 1224.053 1061.842, 1223.992 1062.116, 1224.441 1063 C 1224.860 1063.825, 1224.012 1063.053, 1222.557 1061.285 C 1221.101 1059.517, 1219.949 1057.942, 1219.997 1057.785 C 1220.044 1057.628, 1217.833 1055.065, 1215.082 1052.089 C 1212.332 1049.113, 1210.272 1046.369, 1210.505 1045.992 C 1210.966 1045.245, 1205.434 1039.584, 1204.799 1040.152 C 1203.998 1040.869, 1189.131 1026.597, 1189.707 1025.665 C 1190.038 1025.129, 1189.856 1024.971, 1189.302 1025.313 C 1188.748 1025.656, 1187.441 1025.242, 1186.397 1024.394 C 1185.354 1023.546, 1185.175 1023.182, 1186 1023.586 C 1186.882 1024.018, 1187.157 1023.945, 1186.667 1023.410 C 1186.208 1022.910, 1185.428 1022.500, 1184.934 1022.500 C 1183.895 1022.500, 1172.666 1013.952, 1172.167 1012.781 C 1171.983 1012.352, 1171.435 1012, 1170.948 1012 C 1169.079 1012, 1155.989 1002.827, 1156.554 1001.913 C 1156.881 1001.384, 1156.778 1001.051, 1156.324 1001.173 C 1154.496 1001.668, 1151.001 999.804, 1151.646 998.678 C 1152.017 998.030, 1151.987 997.799, 1151.579 998.164 C 1151.172 998.530, 1143.112 994.801, 1133.669 989.877 C 1124.226 984.954, 1111.775 978.638, 1106 975.841 C 1095.202 970.611, 1089.032 967.523, 993.287 919.428 C 962.371 903.898, 936.496 890.924, 935.787 890.596 C 934.769 890.124, 934.761 889.878, 935.750 889.417 C 936.438 889.096, 937 888.196, 937 887.417 C 937 886.638, 937.450 886, 938 886 C 938.550 886, 939 885.325, 939 884.500 C 939 883.675, 939.477 883, 940.059 883 C 940.641 883, 940.857 882.578, 940.538 882.061 C 940.219 881.545, 940.755 880.659, 941.729 880.092 C 942.703 879.525, 943.140 879.047, 942.699 879.030 C 942.259 879.014, 943.159 877.312, 944.699 875.250 C 948.657 869.951, 949.665 868.998, 950.464 869.798 C 950.851 870.184, 951.058 870.050, 950.925 869.500 C 950.524 867.846, 952.142 864.970, 953.130 865.580 C 953.636 865.893, 953.985 865.778, 953.906 865.324 C 953.577 863.431, 954.057 861.917, 954.833 862.397 C 955.292 862.680, 955.684 862.369, 955.705 861.706 C 955.759 860.007, 965.831 844.880, 968.384 842.663 C 969.548 841.653, 969.873 841.157, 969.106 841.561 C 968.121 842.080, 968.249 841.388, 969.540 839.202 C 970.545 837.501, 971.847 836.381, 972.433 836.715 C 973.020 837.048, 973.180 836.966, 972.790 836.534 C 972.097 835.766, 974.560 829.995, 976.005 829 C 976.754 828.484, 981.505 819.500, 981.028 819.500 C 980.881 819.500, 982.996 814.894, 985.728 809.264 C 988.460 803.634, 991.012 799.346, 991.400 799.734 C 991.788 800.122, 991.841 799.750, 991.518 798.907 C 991.194 798.064, 992.254 794.253, 993.873 790.437 C 996.833 783.460, 1000.115 773.217, 1000.582 769.500 C 1000.720 768.400, 1000.905 767.500, 1000.993 767.500 C 1001.242 767.500, 1001.865 764.838, 1002.515 761 C 1002.841 759.075, 1003.517 756.150, 1004.017 754.500 C 1005.254 750.418, 1009 727.926, 1009 724.580 C 1009 723.096, 1009.337 722.091, 1009.750 722.345 C 1010.805 722.997, 1010.813 722.161, 1010.841 606.250 L 1010.867 502 1113.884 502 C 1189.970 502, 1218.287 501.689, 1222.201 500.808 C 1225.115 500.153, 1227.950 499.741, 1228.500 499.892 C 1229.050 500.043, 1229.199 499.866, 1228.831 499.498 C 1228.463 499.130, 1229.138 497.713, 1230.331 496.349 C 1231.524 494.986, 1232.793 492.887, 1233.150 491.685 C 1233.508 490.483, 1233.841 464.750, 1233.891 434.500 L 1233.980 379.500 1231.574 374.332 C 1230.251 371.490, 1229.356 368.978, 1229.584 368.749 C 1230.263 368.070, 1228.622 367.987, 1202.289 367.359 C 1179.234 366.810, 1164.869 367.578, 1159.472 369.649 C 1157.288 370.487, 1156.007 375.652, 1153.931 392 C 1152.849 400.525, 1151.486 408.963, 1150.904 410.750 L 1149.845 414 1080.922 414 L 1012 414 1011.785 353.750 C 1011.521 279.984, 1011.587 286.073, 1011.057 286.607 C 1010.813 286.852, 1010.018 284.679, 1009.291 281.776 C 1007.381 274.161, 999.782 258.871, 995.614 254.257 C 993.646 252.079, 992.264 250.070, 992.542 249.791 C 992.821 249.513, 992.362 248.716, 991.524 248.020 C 990.686 247.324, 990 247.065, 990 247.445 C 990 247.824, 988.087 246.572, 985.750 244.662 C 980.494 240.369, 972.809 236.154, 963 232.187 C 955.904 229.317, 924.375 219.622, 919 218.657 C 916.227 218.160, 905.428 214.971, 888 209.504 C 881.675 207.519, 871.550 204.411, 865.500 202.597 C 856.280 199.832, 854.905 199.170, 857 198.507 C 858.375 198.072, 871.957 191.524, 887.183 183.957 C 902.408 176.390, 915.193 170.491, 915.593 170.849 C 915.993 171.207, 916.026 170.985, 915.666 170.355 C 914.999 169.188, 917.685 167.485, 919.500 167.925 C 920.050 168.058, 920.168 167.834, 919.761 167.428 C 919.355 167.022, 921.063 164.300, 923.558 161.381 C 929.602 154.306, 929.987 151.498, 929.994 114.423 L 930 84.346 923.635 83.173 C 914.658 81.519, 378.429 81.536, 375.500 83.190 M 454 315.398 L 454 462 689.250 462 L 924.500 462 924.280 432.364 C 924.160 416.064, 923.822 402.489, 923.530 402.197 C 922.697 401.364, 922.911 372, 923.750 372 C 924.163 372, 924.500 360.750, 924.500 347 C 924.500 333.250, 924.130 322, 923.677 322 C 923.224 322, 923.026 321.212, 923.237 320.250 C 923.448 319.288, 922.334 316.587, 920.762 314.250 C 918.141 310.353, 916.960 309.510, 914.676 309.906 C 914.222 309.985, 914.107 309.636, 914.419 309.131 C 914.731 308.625, 913.077 307.442, 910.744 306.502 C 906.299 304.711, 883.428 298.164, 878.835 297.369 C 875.894 296.859, 856.097 291.180, 837.500 285.511 C 816.834 279.211, 812.964 278.118, 809.219 277.522 C 807.217 277.204, 800.161 275.411, 793.539 273.538 C 767.590 266.197, 740.372 259.611, 729.796 258.113 C 720.423 256.786, 700.247 249.810, 687.450 243.472 C 681.373 240.463, 676.093 238, 675.718 238 C 675.342 238, 671.315 235.474, 666.767 232.386 C 662.220 229.299, 657.951 226.687, 657.279 226.582 C 656.607 226.477, 655.707 226.006, 655.279 225.535 C 654.851 225.065, 655.175 225.022, 656 225.441 C 656.825 225.860, 655.925 224.937, 654 223.388 C 652.075 221.840, 647.462 217.671, 643.750 214.123 C 640.038 210.575, 637 208.026, 637 208.458 C 637 208.891, 636.314 208.676, 635.476 207.980 C 634.638 207.284, 634.157 206.509, 634.409 206.258 C 634.969 205.698, 623.644 191.209, 620.656 188.663 C 619.470 187.653, 619.109 187.146, 619.854 187.536 C 620.777 188.020, 620.660 187.411, 619.489 185.623 C 617.840 183.106, 616.126 181.777, 617.595 184.155 C 618.041 184.876, 617.869 185.037, 617.138 184.585 C 616.494 184.187, 616.208 183.473, 616.502 182.997 C 617.398 181.547, 610.024 175.160, 604.093 172.247 L 598.500 169.500 526.250 169.148 L 454 168.796 454 315.398 M 455.494 574.363 C 455.092 587.212, 454.938 599.549, 455.150 601.779 C 455.363 604.008, 455.262 605.662, 454.926 605.454 C 454.182 604.994, 453 641.047, 453 664.220 C 453 673.514, 453.337 680.908, 453.750 680.651 C 454.163 680.395, 454.354 684.240, 454.176 689.197 C 453.998 694.154, 454.232 697.975, 454.695 697.689 C 455.158 697.402, 455.374 698.880, 455.174 700.973 C 454.642 706.547, 458.542 730.774, 462.102 744.015 C 463.801 750.332, 465.366 756.400, 465.582 757.500 C 466.696 763.188, 473.104 777.054, 474.282 776.326 C 474.847 775.976, 475.009 776.176, 474.642 776.771 C 473.728 778.250, 476.048 783.088, 477.301 782.314 C 477.872 781.961, 478.001 782.190, 477.599 782.841 C 476.870 784.019, 486.461 802.507, 490.131 807 C 491.255 808.375, 491.837 808.825, 491.426 808 C 490.987 807.117, 491.054 806.843, 491.590 807.333 C 492.090 807.792, 492.556 808.579, 492.625 809.083 C 492.694 809.587, 492.806 810.350, 492.875 810.777 C 492.944 811.205, 494.238 812.948, 495.750 814.652 C 500.452 819.948, 502 821.991, 502 822.901 C 502 824.254, 530.991 853, 532.355 853 C 533.017 853, 535.120 854.502, 537.029 856.338 C 542.304 861.412, 549.126 866.040, 550.279 865.327 C 550.873 864.961, 551.007 865.180, 550.595 865.845 C 549.948 866.894, 551.194 867.464, 553.324 867.094 C 553.778 867.015, 553.907 867.342, 553.611 867.820 C 552.639 869.393, 591.552 890.153, 598 891.501 C 598.825 891.673, 604.900 893.644, 611.500 895.880 C 651.035 909.274, 694.551 912.517, 733.964 905.007 C 745.102 902.885, 767.097 896.745, 773.698 893.915 C 776.155 892.862, 778.784 892, 779.539 892 C 781.459 892, 804.674 880.743, 809.388 877.526 C 811.527 876.067, 815.599 873.634, 818.436 872.119 C 825.091 868.568, 834.095 861.451, 833.197 860.453 C 832.813 860.027, 832.993 859.960, 833.595 860.303 C 834.788 860.982, 853.480 846.147, 852.573 845.240 C 851.795 844.462, 854.054 841.915, 855.002 842.501 C 855.428 842.764, 858.639 839.933, 862.138 836.209 C 870.011 827.829, 877.956 818.313, 876.168 819.406 C 875.435 819.854, 877.102 817.844, 879.871 814.940 C 882.641 812.036, 884.677 809.286, 884.395 808.830 C 884.113 808.373, 884.359 808, 884.941 808 C 885.523 808, 886 807.541, 886 806.980 C 886 806.419, 887.200 804.059, 888.667 801.736 C 890.133 799.413, 891.333 796.947, 891.333 796.256 C 891.333 795.565, 891.555 795.222, 891.827 795.494 C 892.718 796.385, 895.133 792.025, 894.403 790.844 C 893.989 790.172, 894.128 789.961, 894.738 790.338 C 895.650 790.901, 903.821 776.903, 903.852 774.723 C 903.859 774.296, 906.228 767.996, 909.118 760.723 C 912.008 753.450, 914.391 745.839, 914.414 743.809 C 914.436 741.779, 914.725 740.555, 915.055 741.089 C 916.859 744.008, 922.706 712.696, 923.568 695.500 C 924.878 669.379, 925.480 639.997, 924.705 639.999 C 924.268 639.999, 923.967 633.362, 924.036 625.250 C 924.105 617.138, 923.886 609.802, 923.550 608.948 C 923.213 608.094, 923.064 594.706, 923.219 579.197 L 923.500 550.999 689.862 550.999 L 456.224 551 455.494 574.363 M 847 957.933 C 845.625 958.352, 840.675 960.565, 836 962.851 C 812.048 974.565, 763.463 988.594, 740.500 990.428 C 736.100 990.780, 728.450 991.539, 723.500 992.117 C 711.615 993.502, 670.379 993.464, 656.500 992.054 C 650.450 991.440, 641.915 990.657, 637.534 990.315 L 629.567 989.693 685.710 1045.597 C 716.589 1076.343, 751.915 1111.463, 764.212 1123.640 L 786.572 1145.780 840.536 1093.362 C 870.216 1064.532, 894.388 1040.506, 894.250 1039.972 C 894.113 1039.437, 894.413 1039.113, 894.919 1039.250 C 895.424 1039.388, 906.722 1028.954, 920.026 1016.065 C 942.002 994.775, 944.051 992.510, 942.417 991.315 C 941.427 990.592, 940.037 990, 939.327 990 C 938.617 990, 929.816 985.695, 919.768 980.433 C 909.721 975.171, 900.433 970.653, 899.129 970.392 C 897.826 970.131, 894.226 968.612, 891.129 967.016 C 884.853 963.782, 876.791 960.497, 870 958.407 C 865.238 956.941, 851.207 956.652, 847 957.933" fill="url(#zds-logo-h-hk-vector-gradient)"/>
    <path fill-rule="evenodd" d="M 3275.221 267.647 C 3272.867 274.601, 3268.186 286.075, 3264.817 293.145 L 3258.693 306 3237.347 306 L 3216 306 3216 481.500 L 3216 657 3234.500 657 L 3253 657 3253 645 L 3253 633 3308 633 L 3363 633 3363 560 L 3363 487 3308 487 L 3253 487 3253 464 L 3253 441 3303 441 L 3353 441 3353 373.500 L 3353 306 3328.141 306 L 3303.281 306 3311.755 284.948 C 3316.415 273.369, 3319.985 263.652, 3319.687 263.354 C 3319.136 262.802, 3282.622 254.999, 3280.607 255.002 C 3279.998 255.002, 3277.574 260.693, 3275.221 267.647 M 2357 293 L 2357 327 2330 327 L 2303 327 2303 450.500 L 2303 574 2320.500 574 L 2338 574 2338 469.500 L 2338 365 2347.500 365 L 2357 365 2357 510.500 L 2357 656 2376 656 L 2395 656 2395 510.500 L 2395 365 2405.500 365 L 2416 365 2416 446.566 C 2416 503.081, 2415.668 528.752, 2414.920 530.150 C 2413.507 532.790, 2408.090 535, 2403.032 535 C 2400.477 535, 2398.998 535.458, 2398.993 536.250 C 2398.990 536.938, 2400.636 545.451, 2402.652 555.168 L 2406.317 572.837 2409.436 573.422 C 2415.436 574.548, 2428.094 572.239, 2435 568.759 C 2441.898 565.283, 2446.606 559.786, 2449.200 552.177 C 2450.168 549.338, 2450.522 523.259, 2450.752 437.750 L 2451.050 327 2423.025 327 L 2395 327 2395 293 L 2395 259 2376 259 L 2357 259 2357 293 M 2925.667 260.667 C 2925.300 261.033, 2924.998 267.446, 2924.995 274.917 C 2924.989 292.504, 2922.589 332.385, 2920.371 351.750 L 2919.770 357 2836.885 357 L 2754 357 2754 377.500 L 2754 398 2834 398 C 2910.064 398, 2914 398.088, 2914 399.782 C 2914 400.761, 2912.446 406.949, 2910.548 413.532 C 2895.801 464.651, 2868.668 510.410, 2828.500 551.900 C 2807.052 574.055, 2780.555 596.145, 2754.056 613.962 C 2748.120 617.954, 2745.190 620.512, 2745.657 621.296 C 2748.125 625.435, 2769.225 656, 2769.614 656 C 2770.606 656, 2785.816 645.347, 2798.899 635.490 C 2854.743 593.412, 2896.650 543.704, 2924.506 486.500 C 2933.516 467.998, 2936.174 461.668, 2942.535 443.564 L 2946.729 431.628 2949.964 442.064 C 2973.740 518.778, 3022.755 586.701, 3091.500 638.198 C 3103.345 647.070, 3121.862 659.487, 3122.387 658.908 C 3122.590 658.684, 3128.187 651.217, 3134.825 642.315 L 3146.895 626.129 3137.093 620.106 C 3112.221 604.822, 3089.718 586.876, 3067.457 564.573 C 3043.031 540.102, 3025.402 516.739, 3010.065 488.515 C 2995.923 462.490, 2983.032 428.700, 2977.157 402.250 L 2976.213 398 3058.606 398 L 3141 398 3141 377.500 L 3141 357 3051.928 357 L 2962.856 357 2963.433 351.750 C 2964.466 342.341, 2965.930 312.054, 2966.623 285.750 L 2967.301 260 2946.817 260 C 2935.551 260, 2926.033 260.300, 2925.667 260.667 M 3373 287 L 3373 306 3420 306 L 3467 306 3467 331.500 L 3467 357 3429.500 357 L 3392 357 3392 492 L 3392 627 3411.500 627 L 3431 627 3431 511 L 3431 395 3449 395 L 3467 395 3467 526 L 3467 657 3487 657 L 3507 657 3507 526 L 3507 395 3526 395 L 3545 395 3545 486.935 C 3545 540.175, 3544.615 579.884, 3544.084 581.279 C 3542.511 585.416, 3538.311 586.360, 3524.957 585.579 C 3515.409 585.020, 3513 585.144, 3512.998 586.190 C 3512.997 586.910, 3514.683 595.541, 3516.744 605.368 C 3520.115 621.440, 3520.726 623.325, 3522.811 624.118 C 3528.061 626.114, 3552.272 624.516, 3562.695 621.486 C 3572.645 618.594, 3580.515 608.486, 3582.912 595.520 C 3583.656 591.493, 3584 552.878, 3584 473.316 L 3584 357 3545.500 357 L 3507 357 3507 331.500 L 3507 306 3553.500 306 L 3600 306 3600 287 L 3600 268 3486.500 268 L 3373 268 3373 287 M 2485 364.500 L 2485 459 2473.500 459 L 2462 459 2462 476 L 2462 493 2473.500 493 L 2485 493 2485 552.935 C 2485 592.441, 2484.641 613.813, 2483.948 615.636 C 2483.370 617.158, 2481.180 620, 2479.082 621.951 L 2475.267 625.500 2481.041 641.500 C 2486.796 657.451, 2486.823 657.499, 2489.762 657.266 C 2497.879 656.621, 2539.145 641.450, 2564.149 629.918 L 2575.798 624.545 2575.277 606.522 C 2574.991 596.610, 2574.416 588.127, 2574 587.672 C 2573.584 587.216, 2571.051 587.951, 2568.372 589.305 C 2563.068 591.986, 2538.683 602.610, 2530.250 605.914 L 2525 607.971 2525 550.485 L 2525 493 2607 493 L 2689 493 2689 476 L 2689 459 2607 459 L 2525 459 2525 444 L 2525 429 2595.500 429 L 2666 429 2666 412 L 2666 395 2595.500 395 L 2525 395 2525 380.500 L 2525 366 2595.500 366 L 2666 366 2666 349 L 2666 332 2595.500 332 L 2525 332 2525 318 L 2525 304 2602.500 304 L 2680 304 2680 287 L 2680 270 2582.500 270 L 2485 270 2485 364.500 M 3253 373.500 L 3253 403 3284 403 L 3315 403 3315 373.500 L 3315 344 3284 344 L 3253 344 3253 373.500 M 2576.724 516.917 C 2567.498 520.108, 2559.767 522.899, 2559.545 523.121 C 2558.709 523.958, 2566.956 544.065, 2572.992 555.905 C 2585.489 580.417, 2600.663 600.665, 2622.147 621.500 C 2629.520 628.650, 2640.941 638.581, 2647.526 643.569 C 2659.897 652.939, 2668.478 659, 2669.375 659 C 2669.838 659, 2678.046 649.589, 2691.270 633.897 L 2695.991 628.294 2687.246 622.493 C 2672.725 612.861, 2659.575 602.347, 2649.465 592.286 C 2644.195 587.041, 2639.146 581.627, 2638.247 580.254 C 2636.664 577.839, 2636.706 577.690, 2639.547 575.629 C 2651.951 566.630, 2671.233 548.278, 2679.785 537.328 L 2683.044 533.157 2669.772 522.781 C 2662.472 517.074, 2655.944 512.066, 2655.264 511.652 C 2654.484 511.177, 2652.833 512.303, 2650.793 514.700 C 2640.161 527.190, 2616.995 549.013, 2614.389 548.993 C 2612.367 548.978, 2596 516.167, 2596 512.129 C 2596 510.382, 2594.657 510.716, 2576.724 516.917 M 3253 559 L 3253 595 3289 595 L 3325 595 3325 559 L 3325 523 3289 523 L 3253 523 3253 559 M 3174 1000.434 C 3167.047 1002.870, 3166.698 1003.529, 3169.473 1008.992 C 3170.173 1010.371, 3171.059 1012.513, 3171.441 1013.750 L 3172.135 1016 3158.567 1016 L 3145 1016 3145 1023.500 L 3145 1031 3179.500 1031 L 3214 1031 3214 1023.500 L 3214 1016 3201.969 1016 C 3193.202 1016, 3189.839 1015.661, 3189.577 1014.750 C 3187.297 1006.835, 3183.297 998.012, 3182.019 998.078 C 3181.184 998.121, 3177.575 999.181, 3174 1000.434 M 3378 1011 L 3378 1024 3368 1024 L 3358 1024 3358 1071.500 L 3358 1119 3364.500 1119 L 3371 1119 3371 1079 L 3371 1039 3374.500 1039 L 3378 1039 3378 1095 L 3378 1151 3385.500 1151 L 3393 1151 3393 1095 L 3393 1039 3397.014 1039 L 3401.028 1039 3400.764 1070.750 L 3400.500 1102.500 3397.427 1103.407 L 3394.354 1104.314 3395.815 1111.657 L 3397.276 1119 3401.734 1119 C 3404.186 1119, 3407.423 1118.273, 3408.928 1117.384 C 3414.603 1114.031, 3414.476 1115.107, 3414.790 1067.750 L 3415.079 1024 3404.040 1024 L 3393 1024 3393 1011 L 3393 998 3385.500 998 L 3378 998 3378 1011 M 2701 1007.500 L 2701 1015 2764 1015 L 2827 1015 2827 1007.500 L 2827 1000 2764 1000 L 2701 1000 2701 1007.500 M 3428 1038.500 L 3428 1075 3423.500 1075 L 3419 1075 3419 1081.500 L 3419 1088 3423.551 1088 L 3428.103 1088 3427.801 1111.582 C 3427.525 1133.187, 3427.345 1135.278, 3425.647 1136.518 C 3423.850 1137.830, 3423.860 1138.071, 3425.979 1144.436 C 3427.180 1148.046, 3428.717 1151, 3429.394 1151 C 3431.353 1151, 3446.773 1145.585, 3455.348 1141.886 L 3463.196 1138.500 3462.818 1131.804 C 3462.611 1128.121, 3462.188 1124.855, 3461.879 1124.546 C 3461.570 1124.237, 3457.900 1125.562, 3453.724 1127.492 C 3449.548 1129.421, 3445.652 1131, 3445.066 1131 C 3444.345 1131, 3444 1124.048, 3444 1109.500 L 3444 1088 3475 1088 L 3506 1088 3506 1081.500 L 3506 1075 3475 1075 L 3444 1075 3444 1069 L 3444 1063 3470.500 1063 L 3497 1063 3497 1056.500 L 3497 1050 3470.500 1050 L 3444 1050 3444 1044.500 L 3444 1039 3470.500 1039 L 3497 1039 3497 1032.500 L 3497 1026 3470.500 1026 L 3444 1026 3444 1020.500 L 3444 1015 3473.500 1015 L 3503 1015 3503 1008.500 L 3503 1002 3465.500 1002 L 3428 1002 3428 1038.500 M 3219 1012.500 L 3219 1020 3248 1020 L 3277 1020 3277 1039 L 3277 1058 3249.500 1058 L 3222 1058 3222.076 1097.250 C 3222.130 1125.066, 3222.501 1137.463, 3223.350 1139.807 C 3225.334 1145.281, 3230.499 1149.744, 3236.371 1151.058 C 3243.309 1152.611, 3279.136 1151.815, 3284 1150 C 3289.419 1147.978, 3292.870 1145.175, 3294.942 1141.114 C 3296.851 1137.371, 3299 1125.141, 3299 1118.015 L 3299 1114.175 3290.856 1111.065 C 3286.376 1109.355, 3282.548 1108.119, 3282.347 1108.319 C 3282.147 1108.520, 3281.547 1113.257, 3281.015 1118.847 C 3279.915 1130.390, 3278.201 1134.645, 3274.232 1135.691 C 3272.729 1136.088, 3264.932 1136.432, 3256.905 1136.456 C 3245.953 1136.489, 3241.897 1136.157, 3240.655 1135.128 C 3239.181 1133.906, 3239 1130.426, 3239 1103.378 L 3239 1073 3266.500 1073 L 3294 1073 3294 1039 L 3294 1005 3256.500 1005 L 3219 1005 3219 1012.500 M 2295.366 1007.988 C 2293.092 1008.466, 2288.592 1009.902, 2285.366 1011.181 L 2279.500 1013.506 2279.212 1022.753 C 2278.952 1031.122, 2279.692 1033.925, 2281.422 1031.126 C 2282.562 1029.281, 2293.175 1025.028, 2299.301 1023.961 C 2306.672 1022.678, 2315.333 1023.842, 2320.392 1026.797 C 2331.665 1033.381, 2331.496 1052.032, 2320.094 1059.716 C 2315.254 1062.977, 2310.881 1063.996, 2298.750 1064.687 L 2288 1065.300 2288 1072.996 L 2288 1080.693 2299.750 1081.325 C 2306.213 1081.673, 2313.750 1082.629, 2316.500 1083.450 C 2322.284 1085.177, 2328.316 1089.801, 2330.704 1094.340 C 2332.928 1098.567, 2332.931 1109.427, 2330.710 1113.650 C 2328.278 1118.272, 2321.589 1123.568, 2316.208 1125.132 C 2305.651 1128.200, 2287.488 1125.481, 2278.803 1119.532 C 2276.770 1118.139, 2274.857 1117, 2274.553 1117 C 2274.249 1117, 2274 1121.266, 2274 1126.480 L 2274 1135.959 2277.969 1137.984 C 2287.546 1142.870, 2307.862 1144.536, 2320.769 1141.492 C 2333.757 1138.430, 2344.719 1130.361, 2349.688 1120.205 C 2353.519 1112.375, 2354.113 1099.942, 2351.044 1091.803 C 2347.629 1082.745, 2339.527 1076.179, 2327 1072.317 C 2326.077 1072.032, 2327.422 1070.934, 2330.500 1069.460 C 2342.878 1063.530, 2348.130 1055.316, 2348.824 1040.803 C 2349.224 1032.442, 2349.068 1031.581, 2346.059 1025.469 C 2342.392 1018.019, 2337.001 1013.321, 2328.153 1009.861 C 2323.708 1008.123, 2320.042 1007.594, 2311 1007.385 C 2304.675 1007.239, 2297.639 1007.511, 2295.366 1007.988 M 2451 1008.554 C 2433.312 1013.445, 2419.084 1030.588, 2412.865 1054.500 C 2410.823 1062.352, 2410.523 1065.859, 2410.512 1082 C 2410.498 1102.978, 2411.520 1108.536, 2417.632 1120.733 C 2421.954 1129.357, 2428.676 1136.041, 2436.782 1139.772 C 2441.256 1141.832, 2444.480 1142.494, 2451.606 1142.815 C 2466.203 1143.474, 2476.395 1139.630, 2485.301 1130.109 C 2493.442 1121.406, 2496.976 1111.837, 2496.976 1098.500 C 2496.976 1074.523, 2483.945 1059.329, 2462.409 1058.193 C 2449.971 1057.537, 2444.229 1059.586, 2436.305 1067.510 L 2429.949 1073.866 2430.524 1068.683 C 2431.590 1059.084, 2432.090 1056.523, 2434.110 1050.310 C 2436.864 1041.843, 2442.889 1032.860, 2448.322 1029.122 C 2457.733 1022.648, 2470.179 1021.679, 2482.250 1026.480 L 2488 1028.768 2488 1019.431 L 2488 1010.094 2484.250 1008.915 C 2478.166 1007.002, 2457.426 1006.777, 2451 1008.554 M 2578.500 1008.348 C 2571.195 1010.763, 2566.541 1013.734, 2561.175 1019.409 C 2555.020 1025.916, 2550.909 1034.287, 2547.726 1046.791 C 2545.756 1054.530, 2545.516 1057.951, 2545.566 1077.500 C 2545.617 1096.891, 2545.881 1100.430, 2547.794 1107.342 C 2551 1118.923, 2555.439 1127.179, 2561.582 1132.990 C 2568.968 1139.975, 2574.420 1142.192, 2585.606 1142.762 C 2609.343 1143.971, 2623.505 1132.060, 2631.202 1104.410 C 2633.182 1097.298, 2633.402 1094.180, 2633.383 1073.500 C 2633.365 1052.987, 2633.126 1049.635, 2631.176 1042.500 C 2626.609 1025.799, 2619.109 1015.251, 2608.220 1010.218 C 2603.451 1008.013, 2600.838 1007.528, 2592.500 1007.300 C 2586.171 1007.126, 2581.031 1007.511, 2578.500 1008.348 M 2913 1073.586 C 2899.525 1109.087, 2888.352 1138.793, 2888.170 1139.599 C 2887.893 1140.834, 2889.681 1141.020, 2899.539 1140.782 L 2911.237 1140.500 2916.912 1124 L 2922.587 1107.500 2948.647 1107.234 L 2974.708 1106.967 2980.698 1123.734 L 2986.688 1140.500 2998.344 1140.782 C 3004.755 1140.937, 3010.003 1140.712, 3010.006 1140.282 C 3010.009 1139.852, 2999.096 1110.150, 2985.756 1074.277 L 2961.500 1009.054 2949.500 1009.046 L 2937.500 1009.038 2913 1073.586 M 3062 1075 L 3062 1141 3072.500 1141 L 3083 1141 3083 1075 L 3083 1009 3072.500 1009 L 3062 1009 3062 1075 M 2585.264 1023.930 C 2576.878 1026.033, 2570.342 1035.745, 2567.382 1050.500 C 2565.178 1061.484, 2565.117 1090.795, 2567.277 1100.633 C 2571.554 1120.108, 2581.038 1129.109, 2594.004 1125.999 C 2605.105 1123.336, 2610.856 1112.157, 2613.038 1089 C 2615.741 1060.312, 2610.130 1033.066, 2600.167 1026.503 C 2596.010 1023.765, 2590.036 1022.734, 2585.264 1023.930 M 2948 1032.821 C 2948 1033.888, 2943.725 1046.829, 2938.500 1061.579 C 2933.275 1076.328, 2929 1088.757, 2929 1089.198 C 2929 1089.639, 2938 1090, 2949 1090 C 2960 1090, 2969 1089.707, 2969 1089.348 C 2969 1088.990, 2964.725 1076.613, 2959.500 1061.845 C 2954.275 1047.076, 2950 1034.346, 2950 1033.555 C 2950 1032.765, 2949.550 1031.840, 2949 1031.500 C 2948.450 1031.160, 2948 1031.755, 2948 1032.821 M 3151 1048.500 L 3151 1055 3180 1055 L 3209 1055 3209 1048.500 L 3209 1042 3180 1042 L 3151 1042 3151 1048.500 M 2690 1056.500 L 2690 1064 2710.580 1064 L 2731.159 1064 2730.497 1070.750 C 2728.080 1095.398, 2724.092 1107.120, 2714.491 1117.798 C 2709.472 1123.381, 2697.490 1131.779, 2690.361 1134.710 C 2687.967 1135.694, 2686.006 1136.735, 2686.004 1137.021 C 2686.002 1137.308, 2688.632 1140.449, 2691.848 1144.001 L 2697.696 1150.458 2706.082 1145.479 C 2717.556 1138.666, 2731.375 1124.918, 2736.254 1115.463 C 2742.182 1103.975, 2744.620 1094.013, 2747.564 1069.250 L 2748.188 1064 2761.094 1064 L 2774 1064 2774 1100.852 C 2774 1137.590, 2774.007 1137.715, 2776.287 1141.102 C 2780.286 1147.042, 2782.269 1147.500, 2804 1147.500 C 2821.834 1147.500, 2823.842 1147.322, 2827.500 1145.411 C 2835.544 1141.210, 2838.966 1132.639, 2840.543 1112.747 L 2841.237 1103.994 2833.563 1100.497 C 2829.342 1098.574, 2825.730 1097, 2825.534 1097 C 2825.339 1097, 2824.891 1100.938, 2824.539 1105.750 C 2823.410 1121.159, 2822.072 1128.345, 2819.931 1130.500 C 2818.170 1132.273, 2816.616 1132.500, 2806.222 1132.500 C 2799.775 1132.500, 2793.713 1132.177, 2792.750 1131.781 C 2791.132 1131.117, 2791 1128.526, 2791 1097.531 L 2791 1064 2814.500 1064 L 2838 1064 2838 1056.500 L 2838 1049 2764 1049 L 2690 1049 2690 1056.500 M 3151 1073.500 L 3151 1080 3180 1080 L 3209 1080 3209 1073.500 L 3209 1067 3180 1067 L 3151 1067 3151 1073.500 M 2446.839 1075.574 C 2440.064 1077.659, 2433.518 1085.188, 2431.962 1092.685 C 2429.980 1102.229, 2432.910 1112.978, 2439.362 1119.835 C 2443.996 1124.761, 2447.683 1126.346, 2454.500 1126.346 C 2461.692 1126.346, 2465.501 1124.570, 2470.281 1118.984 C 2474.622 1113.914, 2476.542 1107.497, 2476.358 1098.677 C 2476.088 1085.713, 2470.271 1077.296, 2460.067 1075.108 C 2453.701 1073.743, 2452.671 1073.779, 2446.839 1075.574 M 3151 1123 L 3151 1153 3158.500 1153 L 3166 1153 3166 1148 L 3166 1143 3179.500 1143 L 3193 1143 3193 1146 L 3193 1149 3201 1149 L 3209 1149 3209 1121 L 3209 1093 3180 1093 L 3151 1093 3151 1123 M 3462.500 1097.216 C 3459.200 1098.348, 3456.358 1099.392, 3456.184 1099.536 C 3455.407 1100.181, 3462.363 1114.714, 3466.585 1121.268 C 3471.987 1129.653, 3485.188 1143.113, 3493.278 1148.484 L 3498.882 1152.205 3502.068 1148.575 C 3503.821 1146.579, 3506.108 1143.861, 3507.150 1142.536 L 3509.045 1140.127 3504.273 1136.882 C 3497.595 1132.341, 3489.080 1125.019, 3487.888 1122.790 C 3487.039 1121.204, 3488.046 1119.834, 3494.478 1113.827 C 3505.084 1103.922, 3505.049 1104.052, 3498.520 1099.015 L 3493.081 1094.820 3486.089 1101.910 C 3482.243 1105.809, 3478.603 1109, 3477.999 1109 C 3477.396 1109, 3475.462 1105.868, 3473.701 1102.040 C 3471.940 1098.212, 3470.050 1095.098, 3469.500 1095.119 C 3468.950 1095.140, 3465.800 1096.084, 3462.500 1097.216 M 3166 1118 L 3166 1128 3179.500 1128 L 3193 1128 3193 1118 L 3193 1108 3179.500 1108 L 3166 1108 3166 1118" fill="#2D2929"/>
  </g>
</svg>
